<svg width="602" height="100" viewBox="0 0 602 100" fill="none" xmlns="http://www.w3.org/2000/svg">
<g clip-path="url(#clip0_8_81)">
<path d="M15.2336 50C15.2336 57.0052 17.2477 63.4851 20.7503 68.9142L31.083 49.6497L20.8378 30.9106C17.3352 36.4273 15.2336 42.9947 15.2336 50Z" fill="#FF8210"/>
<path d="M50.5225 14.7109C43.3422 14.7109 36.6872 16.8125 31.1705 20.4903L47.1951 49.5621L31.1705 79.422C36.6872 83.0997 43.3422 85.2013 50.5226 85.2013C69.9621 85.2013 85.8115 69.4395 85.8115 49.9123C85.8115 30.3852 69.9621 14.7109 50.5225 14.7109ZM55.1635 79.422H39.139L55.1635 49.6496L39.139 20.4903H55.1635L71.188 49.5621L55.1635 79.422Z" fill="#FF8210"/>
<path d="M55.076 0V5.69177C77.4929 7.96848 95.006 26.9702 95.006 49.9124C95.006 72.8547 77.4929 91.8564 55.076 94.1331V99.8249C80.6452 97.4606 100.698 76.007 100.698 49.8249C100.698 23.6427 80.6452 2.27671 55.076 0Z" fill="#FF8210"/>
<path d="M45.8816 94.2207C23.4648 91.944 5.95166 73.0298 5.95166 50C5.95166 26.9702 23.4648 7.96848 45.8816 5.69177V0C20.3124 2.27671 0.259888 23.8179 0.259888 50C0.259888 76.1821 20.3124 97.6357 45.8816 100V94.2207Z" fill="#FF8210"/>
<path d="M162.409 8.07218C159.994 6.38645 157.131 5.54782 153.802 5.54782C150.964 5.54782 148.542 6.08149 146.526 7.14037C144.509 8.19925 142.849 9.63084 141.545 11.4267C140.24 13.2225 139.274 15.2725 138.656 17.5682C138.038 19.8723 137.724 22.2611 137.724 24.7431C137.724 27.4454 138.038 30.0036 138.656 32.4178C139.274 34.8321 140.24 36.9329 141.545 38.7287C142.849 40.5246 144.526 41.9477 146.559 43.0151C148.592 44.0739 151.032 44.6076 153.87 44.6076C155.954 44.6076 157.8 44.2688 159.418 43.5742C161.036 42.888 162.434 41.9392 163.603 40.7194C164.781 39.4996 165.695 38.051 166.356 36.3653C167.017 34.6796 167.415 32.8668 167.551 30.9185H173.861C173.243 36.899 171.185 41.5496 167.686 44.8702C164.188 48.1908 159.402 49.8512 153.336 49.8512C149.66 49.8512 146.449 49.2158 143.705 47.9536C140.96 46.6915 138.681 44.9549 136.86 42.7355C135.047 40.5246 133.684 37.907 132.777 34.8998C131.871 31.8841 131.413 28.6567 131.413 25.2005C131.413 21.7444 131.896 18.5 132.879 15.4674C133.853 12.4347 135.285 9.78332 137.165 7.53003C139.046 5.26827 141.392 3.48936 144.205 2.18483C147.017 0.880297 150.236 0.228027 153.87 0.228027C156.352 0.228027 158.698 0.558397 160.909 1.22761C163.12 1.89682 165.094 2.87098 166.822 4.1501C168.55 5.43769 169.99 7.03871 171.142 8.9701C172.294 10.893 173.048 13.1209 173.404 15.6452H167.093C166.382 12.2823 164.823 9.75791 162.409 8.07218Z" fill="white"/>
<path d="M205.102 46.6067C202.536 48.555 199.3 49.5292 195.403 49.5292C192.659 49.5292 190.278 49.0887 188.262 48.1992C186.246 47.3182 184.552 46.073 183.18 44.4804C181.807 42.8879 180.774 40.9819 180.088 38.7625C179.401 36.5516 179.012 34.1374 178.927 31.5198C178.927 28.9107 179.325 26.5135 180.122 24.3449C180.918 22.1763 182.036 20.2957 183.476 18.6947C184.916 17.1022 186.619 15.8569 188.593 14.9759C190.566 14.095 192.726 13.646 195.073 13.646C198.131 13.646 200.664 14.2813 202.68 15.5435C204.696 16.8057 206.314 18.4152 207.534 20.3635C208.754 22.3118 209.592 24.438 210.058 26.7422C210.524 29.0463 210.71 31.2403 210.626 33.3156H184.916C184.874 34.8235 185.052 36.2466 185.45 37.602C185.848 38.9573 186.492 40.1517 187.373 41.1937C188.262 42.2356 189.389 43.0658 190.761 43.6841C192.133 44.3025 193.751 44.616 195.615 44.616C198.004 44.616 199.969 44.0653 201.494 42.9556C203.019 41.8459 204.027 40.1687 204.518 37.9069H210.1C209.346 41.7612 207.686 44.6583 205.119 46.6067L205.102 46.6067ZM203.739 24.5482C203.23 23.3538 202.544 22.3203 201.68 21.4563C200.816 20.5922 199.8 19.9061 198.622 19.3978C197.445 18.8896 196.149 18.6354 194.734 18.6354C193.319 18.6354 191.956 18.8896 190.778 19.3978C189.601 19.9061 188.593 20.6007 187.754 21.4902C186.915 22.3796 186.246 23.4046 185.763 24.5821C185.272 25.7595 184.984 27.0048 184.899 28.3347H204.628C204.535 27.0048 204.238 25.7426 203.73 24.5482H203.739Z" fill="white"/>
<path d="M221.773 14.4511V19.8979H221.909C224.255 15.7387 227.974 13.6548 233.074 13.6548C235.336 13.6548 237.216 13.9682 238.724 14.5866C240.232 15.205 241.452 16.069 242.375 17.1787C243.307 18.2884 243.959 19.6014 244.332 21.1347C244.704 22.6595 244.899 24.3537 244.899 26.2173V48.8094H239.249V25.5565C239.249 23.4303 238.631 21.7446 237.386 20.5078C236.149 19.2711 234.438 18.6442 232.269 18.6442C230.541 18.6442 229.05 18.9068 227.788 19.4405C226.526 19.9742 225.475 20.7281 224.628 21.7022C223.79 22.6764 223.154 23.82 222.731 25.1245C222.307 26.4291 222.095 27.8607 222.095 29.4109V48.8094H216.445V14.4511H221.773Z" fill="white"/>
<path d="M268.084 14.451V19.4319H261.24V40.7619C261.24 41.4226 261.291 41.9563 261.409 42.3544C261.519 42.7526 261.731 43.066 262.045 43.2862C262.358 43.5065 262.79 43.6505 263.341 43.7183C263.891 43.786 264.611 43.8199 265.501 43.8199H268.093V48.8008H263.773C262.307 48.8008 261.062 48.6992 260.02 48.5044C258.978 48.3011 258.139 47.9368 257.496 47.4116C256.852 46.8779 256.377 46.124 256.064 45.1498C255.751 44.1757 255.598 42.8881 255.598 41.2956V19.4404H249.753V14.4594H255.598V4.15869H261.248V14.4594H268.093L268.084 14.451Z" fill="white"/>
<path d="M279.444 14.4509V21.6936H279.58C280.952 18.9066 282.638 16.8397 284.628 15.5182C286.619 14.1883 289.143 13.5699 292.201 13.6546V19.6351C289.94 19.6351 288.017 19.9486 286.424 20.567C284.832 21.1853 283.544 22.0917 282.57 23.2946C281.596 24.489 280.884 25.9376 280.444 27.6487C280.003 29.3514 279.783 31.3166 279.783 33.5276V48.8093H274.133V14.4509H279.444Z" fill="white"/>
<path d="M326.873 48.6653C325.899 49.2413 324.544 49.5293 322.824 49.5293C321.359 49.5293 320.198 49.1227 319.334 48.301C318.47 47.4793 318.038 46.1409 318.038 44.2773C316.488 46.1409 314.683 47.4793 312.625 48.301C310.566 49.1227 308.339 49.5293 305.95 49.5293C304.4 49.5293 302.926 49.3514 301.528 48.9956C300.13 48.6399 298.927 48.0892 297.911 47.3353C296.894 46.5814 296.081 45.5988 295.488 44.3789C294.887 43.1591 294.59 41.6852 294.59 39.9571C294.59 38.0088 294.921 36.4162 295.59 35.171C296.251 33.9342 297.132 32.9261 298.216 32.1468C299.3 31.376 300.537 30.783 301.935 30.3848C303.332 29.9867 304.755 29.6563 306.221 29.3853C307.771 29.0718 309.245 28.8431 310.643 28.6906C312.04 28.5382 313.269 28.3179 314.328 28.0214C315.387 27.7334 316.234 27.3183 316.852 26.7593C317.47 26.2086 317.784 25.3954 317.784 24.3365C317.784 23.0998 317.555 22.1002 317.089 21.3463C316.623 20.5924 316.03 20.0163 315.293 19.6182C314.556 19.2201 313.743 18.9575 312.837 18.8219C311.93 18.6864 311.032 18.6186 310.143 18.6186C307.754 18.6186 305.755 19.0761 304.162 19.9825C302.57 20.8889 301.706 22.6085 301.57 25.1328H295.92C296.005 23.0066 296.454 21.2108 297.25 19.7538C298.046 18.2883 299.114 17.1108 300.435 16.1959C301.765 15.2895 303.281 14.6373 304.984 14.2391C306.687 13.841 308.517 13.6377 310.465 13.6377C312.015 13.6377 313.557 13.7478 315.082 13.9681C316.606 14.1883 317.996 14.6457 319.232 15.3234C320.469 16.0096 321.469 16.9668 322.223 18.2036C322.977 19.4403 323.349 21.0583 323.349 23.0405V40.6771C323.349 42.0071 323.426 42.9728 323.578 43.5911C323.73 44.2095 324.256 44.523 325.137 44.523C325.62 44.523 326.196 44.4382 326.865 44.2604V48.6483L326.873 48.6653ZM317.708 31.0625C316.996 31.5877 316.064 31.9774 314.921 32.2231C313.769 32.4687 312.566 32.6636 311.303 32.816C310.041 32.9685 308.771 33.1464 307.483 33.3412C306.195 33.5361 305.043 33.858 304.027 34.2985C303.01 34.7389 302.18 35.3658 301.536 36.179C300.893 36.9922 300.571 38.1104 300.571 39.5166C300.571 40.4399 300.757 41.2277 301.138 41.8631C301.511 42.4984 302.002 43.0236 302.604 43.4132C303.205 43.8114 303.9 44.0994 304.696 44.2688C305.492 44.4467 306.331 44.5314 307.22 44.5314C309.084 44.5314 310.677 44.2773 312.007 43.769C313.337 43.2608 314.421 42.6254 315.259 41.8546C316.098 41.0837 316.725 40.2451 317.123 39.3387C317.521 38.4323 317.724 37.5852 317.724 36.7974V31.0456L317.708 31.0625Z" fill="white"/>
<path d="M338.106 1.35449V48.7921H332.456V1.35449H338.106Z" fill="white"/>
<path d="M364.078 1.35449C371.388 1.35449 377.013 3.21811 380.952 6.93688C384.891 10.6557 386.865 16.3312 386.865 23.9466C386.865 27.9365 386.424 31.4689 385.535 34.5439C384.645 37.6188 383.273 40.211 381.418 42.3202C379.554 44.4211 377.191 46.0305 374.311 47.1402C371.431 48.2499 368.017 48.8006 364.078 48.8006H347.797V1.35449H364.078ZM364.611 43.4723C365.323 43.4723 366.204 43.4215 367.271 43.3029C368.33 43.1928 369.465 42.9302 370.66 42.5066C371.854 42.0831 373.04 41.4816 374.218 40.6769C375.387 39.8806 376.445 38.7963 377.377 37.424C378.309 36.0517 379.071 34.3321 379.673 32.2736C380.274 30.2152 380.571 27.7247 380.571 24.8022C380.571 21.8797 380.291 19.4316 379.741 17.1953C379.19 14.9589 378.275 13.0529 377.013 11.4858C375.751 9.91019 374.124 8.71578 372.134 7.8941C370.143 7.07241 367.686 6.66581 364.755 6.66581H354.124V43.4723H364.62L364.611 43.4723Z" fill="white"/>
<path d="M393.98 8.26682V1.35449H399.631V8.26682H393.98ZM399.631 14.4422V48.7921H393.98V14.4507H399.631V14.4422Z" fill="white"/>
<path d="M412.71 41.1259C413.243 41.99 413.938 42.6761 414.802 43.1844C415.666 43.6926 416.64 44.0569 417.725 44.2771C418.809 44.4974 419.927 44.6075 421.079 44.6075C421.969 44.6075 422.892 44.5397 423.866 44.4042C424.84 44.2687 425.738 44.0315 426.56 43.6757C427.382 43.3199 428.051 42.8032 428.584 42.117C429.118 41.4309 429.381 40.5584 429.381 39.491C429.381 38.0255 428.83 36.9243 427.72 36.1704C426.611 35.4165 425.23 34.8066 423.57 34.3406C421.909 33.8747 420.105 33.4597 418.157 33.0785C416.208 32.7057 414.404 32.1721 412.744 31.4859C411.083 30.7998 409.694 29.8341 408.593 28.5973C407.483 27.3605 406.933 25.6325 406.933 23.4131C406.933 21.685 407.322 20.2025 408.093 18.9658C408.864 17.729 409.864 16.721 411.083 15.9416C412.303 15.1623 413.675 14.5947 415.2 14.2136C416.725 13.8408 418.241 13.646 419.749 13.646C421.697 13.646 423.493 13.8154 425.128 14.1458C426.763 14.4762 428.22 15.0522 429.482 15.8739C430.745 16.6956 431.753 17.7968 432.507 19.1945C433.26 20.5922 433.701 22.3288 433.836 24.4126H428.186C428.093 23.3029 427.814 22.3881 427.322 21.6596C426.831 20.9311 426.213 20.3466 425.459 19.8976C424.705 19.4571 423.875 19.1352 422.968 18.9319C422.062 18.7286 421.138 18.6354 420.215 18.6354C419.376 18.6354 418.521 18.7032 417.657 18.8387C416.793 18.9742 416.005 19.203 415.302 19.5333C414.59 19.8637 414.014 20.3127 413.574 20.8633C413.133 21.4139 412.913 22.1339 412.913 23.0234C412.913 23.9976 413.252 24.8108 413.947 25.4461C414.633 26.0899 415.505 26.6236 416.573 27.0386C417.64 27.4537 418.834 27.818 420.164 28.0975C421.494 28.3855 422.824 28.682 424.154 28.9954C425.569 29.3089 426.958 29.6816 428.305 30.1221C429.652 30.5626 430.855 31.1555 431.897 31.8841C432.939 32.6126 433.777 33.5359 434.421 34.6371C435.065 35.7468 435.387 37.1191 435.387 38.754C435.387 40.8379 434.955 42.566 434.091 43.9383C433.227 45.3106 432.1 46.4203 430.702 47.2589C429.304 48.0975 427.737 48.6905 425.984 49.0209C424.23 49.3513 422.494 49.5207 420.766 49.5207C418.86 49.5207 417.047 49.3174 415.319 48.9192C413.591 48.5211 412.066 47.8688 410.736 46.9624C409.406 46.056 408.347 44.8616 407.551 43.3792C406.755 41.8968 406.314 40.0925 406.221 37.9662H411.871C411.913 39.203 412.202 40.2619 412.735 41.1259L412.71 41.1259Z" fill="white"/>
<path d="M447.458 14.4511V19.1016H447.593C448.525 17.1957 449.982 15.8149 451.981 14.9508C453.972 14.0868 456.166 13.6548 458.555 13.6548C461.215 13.6548 463.527 14.1461 465.501 15.1203C467.475 16.0944 469.11 17.4159 470.414 19.0762C471.719 20.7365 472.71 22.651 473.371 24.8196C474.031 26.9881 474.37 29.2923 474.37 31.7319C474.37 34.1715 474.048 36.4757 473.404 38.6442C472.761 40.8128 471.786 42.7103 470.482 44.3283C469.177 45.9462 467.534 47.2169 465.569 48.1487C463.595 49.0805 461.308 49.5464 458.69 49.5464C457.852 49.5464 456.903 49.4617 455.869 49.2838C454.828 49.1059 453.803 48.8179 452.778 48.4198C451.761 48.0216 450.795 47.4795 449.889 46.7933C448.983 46.1072 448.22 45.2516 447.593 44.2351H447.458V61.9056H441.808V14.4511H447.458ZM467.754 26.6408C467.331 25.116 466.695 23.7522 465.831 22.5578C464.967 21.3634 463.858 20.4062 462.511 19.7031C461.155 18.9915 459.58 18.6442 457.759 18.6442C455.853 18.6442 454.235 19.0254 452.905 19.7708C451.575 20.5248 450.491 21.5074 449.652 22.7272C448.813 23.947 448.203 25.3278 447.822 26.878C447.449 28.4282 447.255 30.0038 447.255 31.5964C447.255 33.2821 447.458 34.9085 447.856 36.4757C448.254 38.0513 448.889 39.432 449.745 40.6264C450.609 41.8209 451.727 42.7865 453.1 43.5151C454.472 44.2436 456.132 44.6078 458.081 44.6078C460.029 44.6078 461.655 44.2351 462.96 43.4812C464.264 42.7273 465.315 41.7361 466.12 40.4909C466.916 39.2541 467.492 37.831 467.848 36.2385C468.203 34.6459 468.381 33.0026 468.381 31.3253C468.381 29.7327 468.169 28.1656 467.746 26.6408L467.754 26.6408Z" fill="white"/>
<path d="M511.439 48.6653C510.465 49.2413 509.11 49.5293 507.39 49.5293C505.925 49.5293 504.764 49.1227 503.9 48.301C503.036 47.4793 502.604 46.1409 502.604 44.2773C501.054 46.1409 499.249 47.4793 497.191 48.301C495.133 49.1227 492.905 49.5293 490.516 49.5293C488.966 49.5293 487.492 49.3514 486.094 48.9956C484.696 48.6399 483.493 48.0892 482.477 47.3353C481.46 46.5814 480.647 45.5988 480.054 44.3789C479.453 43.1591 479.156 41.6852 479.156 39.9571C479.156 38.0088 479.487 36.4162 480.156 35.171C480.817 33.9342 481.698 32.9261 482.782 32.1468C483.866 31.376 485.103 30.783 486.501 30.3848C487.898 29.9867 489.321 29.6563 490.787 29.3853C492.337 29.0718 493.811 28.8431 495.209 28.6906C496.606 28.5382 497.835 28.3179 498.894 28.0214C499.952 27.7334 500.8 27.3183 501.418 26.7593C502.036 26.2086 502.35 25.3954 502.35 24.3365C502.35 23.0998 502.121 22.1002 501.655 21.3463C501.189 20.5924 500.596 20.0163 499.859 19.6182C499.131 19.2201 498.309 18.9575 497.403 18.8219C496.496 18.6864 495.598 18.6186 494.709 18.6186C492.32 18.6186 490.321 19.0761 488.728 19.9825C487.136 20.8889 486.272 22.6085 486.136 25.1328H480.486C480.571 23.0066 481.02 21.2108 481.816 19.7538C482.612 18.2883 483.68 17.1108 485.001 16.1959C486.331 15.2895 487.847 14.6373 489.55 14.2391C491.253 13.841 493.082 13.6377 495.031 13.6377C496.581 13.6377 498.123 13.7478 499.647 13.9681C501.172 14.1883 502.561 14.6457 503.798 15.3234C505.035 16.0096 506.035 16.9668 506.789 18.2036C507.543 19.4403 507.915 21.0583 507.915 23.0405V40.6771C507.915 42.0071 507.991 42.9728 508.152 43.5911C508.305 44.2095 508.83 44.523 509.711 44.523C510.194 44.523 510.77 44.4382 511.439 44.2604V48.6483L511.439 48.6653ZM502.274 31.0625C501.562 31.5877 500.63 31.9774 499.487 32.2231C498.335 32.4687 497.132 32.6636 495.87 32.816C494.607 32.9685 493.337 33.1464 492.049 33.3412C490.761 33.5361 489.609 33.858 488.593 34.2985C487.576 34.7389 486.746 35.3658 486.102 36.179C485.459 36.9922 485.137 38.1104 485.137 39.5166C485.137 40.4399 485.323 41.2277 485.704 41.8631C486.077 42.4984 486.568 43.0236 487.17 43.4132C487.771 43.8114 488.466 44.0994 489.262 44.2688C490.058 44.4467 490.897 44.5314 491.786 44.5314C493.65 44.5314 495.243 44.2773 496.573 43.769C497.902 43.2608 498.987 42.6254 499.825 41.8546C500.664 41.0837 501.291 40.2451 501.689 39.3387C502.087 38.4323 502.291 37.5852 502.291 36.7974V31.0456L502.274 31.0625Z" fill="white"/>
<path d="M531.372 14.451V19.4319H524.527V40.7619C524.527 41.4226 524.578 41.9563 524.696 42.3544C524.806 42.7526 525.018 43.066 525.332 43.2862C525.645 43.5065 526.077 43.6505 526.628 43.7183C527.178 43.786 527.898 43.8199 528.788 43.8199H531.38V48.8008H527.06C525.594 48.8008 524.349 48.6992 523.307 48.5044C522.265 48.3011 521.427 47.9368 520.783 47.4116C520.139 46.8779 519.665 46.124 519.351 45.1498C519.038 44.1757 518.885 42.8881 518.885 41.2956V19.4404H513.04V14.4594H518.885V4.15869H524.535V14.4594H531.38L531.372 14.451Z" fill="white"/>
<path d="M558.14 20.423C556.725 19.2286 554.819 18.6271 552.43 18.6271C550.389 18.6271 548.686 19.0083 547.314 19.7538C545.942 20.5077 544.84 21.5073 544.027 22.744C543.206 23.9808 542.621 25.4124 542.265 27.0304C541.909 28.6483 541.732 30.3171 541.732 32.0452C541.732 33.6377 541.918 35.1879 542.299 36.6958C542.672 38.2036 543.265 39.542 544.061 40.7195C544.857 41.8969 545.899 42.8372 547.187 43.5403C548.474 44.2519 549.999 44.5992 551.77 44.5992C554.557 44.5992 556.742 43.8707 558.309 42.4052C559.885 40.9397 560.842 38.8813 561.198 36.2298H566.975C566.357 40.4823 564.773 43.7606 562.223 46.0647C559.673 48.3688 556.209 49.5208 551.829 49.5208C549.211 49.5208 546.899 49.0973 544.883 48.2587C542.867 47.42 541.181 46.2172 539.834 44.667C538.487 43.1168 537.462 41.2701 536.776 39.1185C536.09 36.9668 535.743 34.6119 535.743 32.0452C535.743 29.4785 536.073 27.0727 536.742 24.8364C537.403 22.6 538.411 20.6517 539.766 18.9914C541.113 17.331 542.807 16.0265 544.849 15.0693C546.882 14.1205 549.254 13.6377 551.956 13.6377C553.904 13.6377 555.734 13.8664 557.437 14.3323C559.139 14.7982 560.647 15.5183 561.952 16.4924C563.256 17.4666 564.332 18.6949 565.171 20.1773C566.009 21.6597 566.543 23.4217 566.763 25.4547H560.918C560.478 23.2861 559.546 21.6004 558.131 20.406L558.14 20.423Z" fill="white"/>
<path d="M578.936 1.35449V19.4909H579.072C579.512 18.432 580.131 17.5341 580.935 16.7971C581.732 16.0686 582.63 15.4672 583.629 15.0013C584.629 14.5354 585.662 14.1965 586.755 13.9678C587.839 13.7476 588.89 13.6374 589.915 13.6374C592.176 13.6374 594.057 13.9509 595.565 14.5693C597.073 15.1876 598.284 16.0517 599.216 17.1614C600.147 18.2711 600.8 19.5841 601.172 21.1173C601.545 22.6421 601.74 24.3363 601.74 26.1999V48.7921H596.09V25.5392C596.09 23.413 595.472 21.7273 594.226 20.4905C592.989 19.2537 591.278 18.6269 589.11 18.6269C587.382 18.6269 585.891 18.8895 584.629 19.4231C583.366 19.9568 582.316 20.7107 581.469 21.6849C580.622 22.6591 579.995 23.8027 579.58 25.1072C579.156 26.4117 578.945 27.8433 578.945 29.3935V48.7921H573.295V1.35449H578.945H578.936Z" fill="white"/>
<path d="M134.6 65.8345V75.6735H134.678C135.198 74.6168 136.004 73.846 137.112 73.3697C138.221 72.8933 139.433 72.6508 140.758 72.6508C142.231 72.6508 143.513 72.9193 144.604 73.4649C145.695 74.0106 146.605 74.7381 147.332 75.6562C148.06 76.5743 148.605 77.6396 148.969 78.8435C149.342 80.0474 149.524 81.3206 149.524 82.6717C149.524 84.0228 149.342 85.3047 148.987 86.4999C148.631 87.7038 148.086 88.7518 147.367 89.6525C146.639 90.5533 145.73 91.2549 144.639 91.7745C143.547 92.2942 142.274 92.5454 140.828 92.5454C140.36 92.5454 139.84 92.4934 139.26 92.3981C138.68 92.3028 138.108 92.1383 137.545 91.9218C136.982 91.6966 136.445 91.4021 135.943 91.021C135.441 90.6399 135.016 90.1635 134.67 89.6006H134.592V92.1383H131.465V65.8345L134.6 65.8345ZM145.851 79.8482C145.617 78.9994 145.262 78.2459 144.786 77.5789C144.31 76.9207 143.695 76.3924 142.941 75.994C142.188 75.6042 141.313 75.405 140.308 75.405C139.251 75.405 138.359 75.6129 137.623 76.0286C136.887 76.4443 136.281 76.99 135.822 77.6656C135.354 78.3411 135.016 79.112 134.808 79.9694C134.6 80.8269 134.497 81.7016 134.497 82.5851C134.497 83.5205 134.609 84.4212 134.826 85.296C135.051 86.1708 135.397 86.933 135.874 87.5999C136.35 88.2668 136.974 88.7951 137.736 89.2022C138.498 89.6092 139.416 89.8084 140.499 89.8084C141.581 89.8084 142.482 89.6006 143.21 89.1849C143.937 88.7691 144.517 88.2148 144.959 87.5306C145.401 86.8463 145.721 86.0582 145.921 85.1747C146.12 84.2913 146.215 83.3819 146.215 82.4465C146.215 81.5631 146.102 80.697 145.869 79.8482L145.851 79.8482Z" fill="white"/>
<path d="M160.679 94.6763C160.307 95.6117 159.951 96.3912 159.596 97.0321C159.241 97.673 158.843 98.1927 158.418 98.5998C157.994 99.0068 157.509 99.3013 156.981 99.4832C156.452 99.6651 155.846 99.7604 155.162 99.7604C154.789 99.7604 154.426 99.7344 154.053 99.6911C153.681 99.6391 153.326 99.5525 152.988 99.4312V96.5557C153.256 96.677 153.568 96.7809 153.923 96.8675C154.278 96.9542 154.582 96.9975 154.824 96.9975C155.465 96.9975 155.993 96.8416 156.426 96.5384C156.859 96.2353 157.18 95.7936 157.405 95.2306L158.696 92.026L151.143 73.0928H154.677L160.237 88.6741H160.307L165.65 73.0928H168.968L160.679 94.6763Z" fill="white"/>
<path d="M198.268 69.5503C196.926 68.6149 195.341 68.1472 193.496 68.1472C191.928 68.1472 190.577 68.4416 189.46 69.0306C188.343 69.6196 187.425 70.4077 186.697 71.4037C185.969 72.3998 185.441 73.5344 185.095 74.8076C184.748 76.0807 184.575 77.4146 184.575 78.783C184.575 80.2814 184.748 81.7018 185.095 83.0356C185.441 84.3781 185.969 85.5387 186.697 86.5347C187.425 87.5308 188.351 88.3189 189.477 88.9079C190.603 89.4968 191.954 89.7913 193.531 89.7913C194.683 89.7913 195.713 89.6007 196.605 89.2197C197.497 88.8386 198.277 88.3102 198.926 87.6347C199.576 86.9591 200.087 86.1536 200.46 85.2182C200.832 84.2828 201.048 83.2781 201.126 82.1955H204.626C204.279 85.5127 203.136 88.085 201.196 89.9299C199.256 91.7747 196.605 92.6928 193.236 92.6928C191.201 92.6928 189.417 92.3463 187.892 91.6448C186.368 90.9432 185.103 89.9818 184.099 88.752C183.094 87.5221 182.332 86.0757 181.829 84.4041C181.327 82.7325 181.076 80.9396 181.076 79.0255C181.076 77.1114 181.344 75.3099 181.89 73.6296C182.427 71.9494 183.224 70.477 184.263 69.2298C185.303 67.9739 186.61 66.9866 188.169 66.2677C189.728 65.5402 191.513 65.1851 193.531 65.1851C194.908 65.1851 196.207 65.3669 197.437 65.7394C198.667 66.1031 199.758 66.6488 200.719 67.359C201.681 68.0692 202.478 68.9613 203.11 70.0266C203.751 71.0919 204.166 72.3305 204.366 73.7249H200.867C200.477 71.8628 199.611 70.4597 198.268 69.5243L198.268 69.5503Z" fill="white"/>
<path d="M208.012 78.7054C208.402 77.4928 208.991 76.4361 209.779 75.5354C210.567 74.6433 211.537 73.9331 212.689 73.4134C213.841 72.9024 215.166 72.6426 216.664 72.6426C218.163 72.6426 219.523 72.9024 220.657 73.4134C221.801 73.9331 222.762 74.6346 223.55 75.5354C224.338 76.4362 224.927 77.4841 225.317 78.7054C225.707 79.9179 225.906 81.2258 225.906 82.6289C225.906 84.032 225.707 85.3311 225.317 86.535C224.927 87.7389 224.338 88.7869 223.55 89.6877C222.762 90.5884 221.801 91.2813 220.657 91.7837C219.514 92.286 218.18 92.5372 216.665 92.5372C215.149 92.5372 213.841 92.286 212.689 91.7837C211.537 91.2813 210.567 90.5798 209.779 89.6877C208.991 88.7869 208.402 87.7389 208.012 86.535C207.622 85.3311 207.423 84.032 207.423 82.6289C207.423 81.2257 207.622 79.9179 208.012 78.7054ZM211.199 85.7035C211.502 86.6043 211.927 87.3491 212.473 87.9468C213.009 88.5531 213.642 89.0121 214.369 89.3239C215.097 89.6443 215.859 89.8002 216.673 89.8002C217.487 89.8002 218.249 89.6443 218.977 89.3239C219.705 89.0034 220.337 88.5444 220.874 87.9468C221.411 87.3491 221.835 86.5956 222.147 85.7035C222.45 84.8114 222.606 83.7808 222.606 82.6288C222.606 81.4769 222.45 80.4462 222.147 79.5541C221.844 78.662 221.419 77.8999 220.874 77.2849C220.337 76.67 219.705 76.2023 218.977 75.8818C218.249 75.5614 217.487 75.4055 216.673 75.4055C215.859 75.4055 215.097 75.5614 214.369 75.8818C213.642 76.2023 213.009 76.67 212.473 77.2849C211.936 77.8998 211.511 78.6534 211.199 79.5541C210.896 80.4549 210.74 81.4769 210.74 82.6288C210.74 83.7808 210.896 84.8114 211.199 85.7035Z" fill="white"/>
<path d="M228.089 73.0928H232.107L236.672 79.7618L241.427 73.0928H245.186L238.629 81.8578L246 92.1386H241.981L236.68 84.257L231.38 92.1386H227.586L234.732 82.1177L228.097 73.0928L228.089 73.0928Z" fill="white"/>
<path d="M270.45 65.8345L280.731 92.1383H276.859L273.984 84.222H262.863L259.918 92.1383H256.341L266.579 65.8345H270.45ZM272.884 81.2686L268.501 69.0045H268.432L263.972 81.2686L272.884 81.2686Z" fill="white"/>
<path d="M295.611 92.1299V89.1072H295.541C294.874 90.2851 294.034 91.1512 293.004 91.7055C291.973 92.2598 290.76 92.537 289.357 92.537C288.101 92.537 287.062 92.3724 286.222 92.0433C285.39 91.7142 284.715 91.2378 284.195 90.6229C283.676 90.0079 283.32 89.2804 283.113 88.4316C282.905 87.5828 282.801 86.6474 282.801 85.6168V73.0928H285.936V85.9892C285.936 87.1671 286.283 88.1025 286.967 88.7867C287.651 89.4709 288.604 89.8174 289.799 89.8174C290.76 89.8174 291.583 89.6702 292.285 89.3757C292.986 89.0812 293.567 88.6655 294.034 88.1198C294.502 87.5828 294.848 86.9506 295.082 86.223C295.316 85.4955 295.429 84.7073 295.429 83.8499V73.0928H298.564V92.1386H295.619L295.611 92.1299Z" fill="white"/>
<path d="M311.409 73.0928V75.8557H307.615V87.6781C307.615 88.0506 307.65 88.345 307.71 88.5616C307.771 88.7781 307.892 88.9513 308.057 89.0726C308.23 89.1938 308.464 89.2718 308.776 89.3151C309.079 89.3497 309.477 89.367 309.971 89.367H311.408V92.1299H309.018C308.204 92.1299 307.511 92.078 306.939 91.9654C306.359 91.8528 305.891 91.6536 305.536 91.3591C305.181 91.0646 304.913 90.6489 304.748 90.1032C304.575 89.5662 304.488 88.8474 304.488 87.9639V75.847H301.249V73.0841H304.488V67.3765H307.615V73.0841H311.408L311.409 73.0928Z" fill="white"/>
<path d="M314.431 78.7054C314.821 77.4928 315.41 76.4361 316.198 75.5354C316.986 74.6433 317.956 73.9331 319.108 73.4134C320.26 72.9024 321.585 72.6426 323.084 72.6426C324.582 72.6426 325.942 72.9024 327.076 73.4134C328.22 73.9331 329.181 74.6346 329.969 75.5354C330.757 76.4362 331.346 77.4841 331.736 78.7054C332.126 79.9179 332.325 81.2258 332.325 82.6289C332.325 84.032 332.126 85.3311 331.736 86.535C331.346 87.7389 330.757 88.7869 329.969 89.6877C329.181 90.5884 328.22 91.2813 327.076 91.7837C325.933 92.286 324.599 92.5372 323.084 92.5372C321.568 92.5372 320.26 92.286 319.108 91.7837C317.956 91.2813 316.986 90.5798 316.198 89.6877C315.41 88.7869 314.821 87.7389 314.431 86.535C314.041 85.3311 313.842 84.032 313.842 82.6289C313.842 81.2257 314.041 79.9179 314.431 78.7054ZM317.619 85.7035C317.922 86.6043 318.346 87.3491 318.892 87.9468C319.429 88.5531 320.061 89.0121 320.789 89.3239C321.516 89.6443 322.278 89.8002 323.092 89.8002C323.906 89.8002 324.669 89.6443 325.396 89.3239C326.124 89.0034 326.756 88.5444 327.293 87.9468C327.83 87.3491 328.254 86.5956 328.566 85.7035C328.869 84.8114 329.025 83.7808 329.025 82.6288C329.025 81.4769 328.869 80.4462 328.566 79.5541C328.263 78.662 327.839 77.8999 327.293 77.2849C326.756 76.67 326.124 76.2023 325.396 75.8818C324.669 75.5614 323.906 75.4055 323.092 75.4055C322.278 75.4055 321.516 75.5614 320.789 75.8818C320.061 76.2023 319.429 76.67 318.892 77.2849C318.355 77.8998 317.93 78.6534 317.619 79.5541C317.315 80.4549 317.159 81.4769 317.159 82.6288C317.159 83.7808 317.315 84.8114 317.619 85.7035Z" fill="white"/>
<path d="M338.96 73.0926V75.8901H339.029C340.449 73.7335 342.502 72.6509 345.178 72.6509C346.356 72.6509 347.421 72.8934 348.383 73.3871C349.344 73.8808 350.02 74.7122 350.409 75.8901C351.05 74.8595 351.891 74.0626 352.93 73.4997C353.969 72.9367 355.121 72.6509 356.377 72.6509C357.338 72.6509 358.196 72.7548 358.975 72.9627C359.746 73.1705 360.413 73.4997 360.967 73.9414C361.522 74.3831 361.946 74.9547 362.258 75.6563C362.561 76.3578 362.717 77.198 362.717 78.1767V92.1384H359.582V79.6491C359.582 79.0601 359.53 78.5058 359.434 77.9948C359.339 77.4751 359.149 77.0334 358.88 76.6523C358.612 76.2712 358.239 75.9681 357.754 75.7515C357.269 75.535 356.654 75.4224 355.892 75.4224C354.342 75.4224 353.129 75.8641 352.246 76.7476C351.362 77.631 350.921 78.8089 350.921 80.2813V92.1384H347.785V79.6491C347.785 79.0341 347.733 78.4711 347.621 77.9515C347.508 77.4318 347.318 76.9901 347.049 76.609C346.781 76.2279 346.417 75.9334 345.966 75.7256C345.516 75.5177 344.927 75.4138 344.217 75.4138C343.307 75.4138 342.528 75.5956 341.878 75.9681C341.229 76.3405 340.7 76.7822 340.293 77.2932C339.886 77.8042 339.592 78.3412 339.41 78.8955C339.228 79.4499 339.133 79.9089 339.133 80.2726V92.1297H335.997V73.0839H338.942L338.96 73.0926Z" fill="white"/>
<path d="M366.996 78.7054C367.385 77.4928 367.974 76.4361 368.762 75.5354C369.551 74.6433 370.521 73.9331 371.673 73.4134C372.824 72.9024 374.15 72.6426 375.648 72.6426C377.146 72.6426 378.506 72.9024 379.641 73.4134C380.784 73.9331 381.745 74.6346 382.534 75.5354C383.322 76.4362 383.911 77.4841 384.3 78.7054C384.69 79.9179 384.889 81.2258 384.889 82.6289C384.889 84.032 384.69 85.3311 384.3 86.535C383.911 87.7389 383.322 88.7869 382.534 89.6877C381.745 90.5884 380.784 91.2813 379.641 91.7837C378.498 92.286 377.164 92.5372 375.648 92.5372C374.132 92.5372 372.824 92.286 371.673 91.7837C370.521 91.2813 369.551 90.5798 368.762 89.6877C367.974 88.7869 367.385 87.7389 366.996 86.535C366.606 85.3311 366.407 84.032 366.407 82.6289C366.407 81.2257 366.606 79.9179 366.996 78.7054ZM370.183 85.7035C370.486 86.6043 370.91 87.3491 371.456 87.9468C371.993 88.5531 372.625 89.0121 373.353 89.3239C374.08 89.6443 374.843 89.8002 375.657 89.8002C376.471 89.8002 377.233 89.6443 377.961 89.3239C378.688 89.0034 379.32 88.5444 379.857 87.9468C380.394 87.3491 380.819 86.5956 381.131 85.7035C381.434 84.8114 381.59 83.7808 381.59 82.6288C381.59 81.4769 381.434 80.4462 381.131 79.5541C380.827 78.662 380.403 77.8999 379.857 77.2849C379.32 76.67 378.688 76.2023 377.961 75.8818C377.233 75.5614 376.471 75.4055 375.657 75.4055C374.843 75.4055 374.08 75.5614 373.353 75.8818C372.625 76.2023 371.993 76.67 371.456 77.2849C370.919 77.8998 370.495 78.6534 370.183 79.5541C369.88 80.4549 369.724 81.4769 369.724 82.6288C369.724 83.7808 369.88 84.8114 370.183 85.7035Z" fill="white"/>
<path d="M396.721 73.0928V75.8557H392.927V87.6781C392.927 88.0506 392.962 88.345 393.022 88.5616C393.083 88.7781 393.204 88.9513 393.369 89.0726C393.542 89.1938 393.776 89.2718 394.088 89.3151C394.391 89.3497 394.789 89.367 395.283 89.367H396.721V92.1299H394.33C393.516 92.1299 392.823 92.078 392.251 91.9654C391.671 91.8528 391.203 91.6536 390.848 91.3591C390.493 91.0646 390.225 90.6489 390.06 90.1032C389.887 89.5662 389.8 88.8474 389.8 87.9639V75.847H386.561V73.0841H389.8V67.3765H392.927V73.0841H396.721L396.721 73.0928Z" fill="white"/>
<path d="M400.367 69.6632V65.835H403.502V69.6632H400.367ZM403.502 73.093V92.1388H400.367V73.093H403.502Z" fill="white"/>
<path d="M413.592 92.1298L406.516 73.084H410.015L415.359 88.9598H415.429L420.625 73.084H423.908L416.944 92.1298H413.592Z" fill="white"/>
<path d="M440.26 90.9172C438.831 91.9998 437.047 92.5368 434.881 92.5368C433.357 92.5368 432.041 92.2943 430.923 91.8006C429.806 91.3069 428.862 90.6227 428.108 89.7393C427.346 88.8558 426.775 87.7992 426.393 86.5693C426.012 85.3394 425.796 84.0056 425.753 82.5505C425.753 81.1041 425.969 79.779 426.419 78.5751C426.861 77.3712 427.485 76.3318 428.282 75.4484C429.078 74.565 430.023 73.8807 431.114 73.3871C432.205 72.8934 433.4 72.6509 434.708 72.6509C436.406 72.6509 437.809 72.9973 438.926 73.6989C440.043 74.4004 440.935 75.2925 441.611 76.3665C442.287 77.4491 442.754 78.627 443.014 79.9002C443.274 81.1734 443.378 82.3946 443.326 83.5466H429.07C429.044 84.378 429.139 85.1749 429.364 85.9197C429.581 86.6732 429.945 87.3315 430.43 87.9118C430.923 88.4921 431.547 88.9511 432.309 89.2975C433.071 89.644 433.963 89.8085 434.994 89.8085C436.319 89.8085 437.41 89.5054 438.251 88.8905C439.099 88.2755 439.654 87.3401 439.931 86.0929H443.023C442.607 88.2322 441.68 89.8345 440.26 90.9172ZM439.506 78.6877C439.221 78.0208 438.84 77.4578 438.363 76.9727C437.887 76.4877 437.315 76.1153 436.666 75.8295C436.016 75.5437 435.297 75.4051 434.509 75.4051C433.721 75.4051 432.967 75.5437 432.318 75.8295C431.668 76.1153 431.105 76.4964 430.637 76.9901C430.17 77.4838 429.806 78.0554 429.529 78.705C429.26 79.3546 429.096 80.0474 429.052 80.7836H439.991C439.94 80.0474 439.775 79.3459 439.498 78.6877H439.506Z" fill="white"/>
</g>
<defs>
<clipPath id="clip0_8_81">
<rect width="601.48" height="100" fill="white" transform="translate(0.259888)"/>
</clipPath>
</defs>
</svg>
