<?xml version="1.0" encoding="UTF-8"?>
<svg id="Layer_1" xmlns="http://www.w3.org/2000/svg" xmlns:xlink="http://www.w3.org/1999/xlink" version="1.1" viewBox="0 0 139 139">
  <!-- Generator: Adobe Illustrator 29.1.0, SVG Export Plug-In . SVG Version: 2.1.0 Build 142)  -->
  <defs>
    <style>
      .st0 {
        fill-rule: evenodd;
      }

      .st0, .st1 {
        fill: #00333f;
      }

      .st2 {
        fill: url(#linear-gradient);
        stroke: url(#linear-gradient1);
        stroke-width: .7px;
      }
    </style>
    <linearGradient id="linear-gradient" x1="69.7" y1="171.9" x2="69.7" y2="33.9" gradientTransform="translate(0 171.8) scale(1 -1)" gradientUnits="userSpaceOnUse">
      <stop offset="0" stop-color="#ffdf6b"/>
      <stop offset="1" stop-color="#ffc20e"/>
    </linearGradient>
    <linearGradient id="linear-gradient1" x1="69.7" y1="171.9" x2="69.7" y2="33.9" gradientTransform="translate(0 171.8) scale(1 -1)" gradientUnits="userSpaceOnUse">
      <stop offset="0" stop-color="#ffc20e"/>
      <stop offset="1" stop-color="#c24621"/>
    </linearGradient>
  </defs>
  <rect class="st2" x=".7" y=".2" width="137.9" height="137.3" rx="68.7" ry="68.7"/>
  <path class="st1" d="M49.8,65.3c0-2,1.6-3.6,3.6-3.6h7.2v-7.2c0-2,1.6-3.6,3.6-3.6s3.6,1.6,3.6,3.6v7.2h7.2c2,0,3.6,1.6,3.6,3.6s-1.6,3.6-3.6,3.6h-7.2v7.2c0,2-1.6,3.6-3.6,3.6s-3.6-1.6-3.6-3.6v-7.2h-7.2c-2,0-3.6-1.6-3.6-3.6Z"/>
  <path class="st0" d="M64.3,31.8c-18,0-32.5,14.5-32.5,32.4s14.6,32.4,32.5,32.4,14.7-2.6,20.3-7.1l13.3,13.2c1.4,1.4,3.7,1.4,5.1,0,1.4-1.4,1.4-3.7,0-5.1l-13.3-13.2c4.5-5.5,7.1-12.6,7.1-20.2,0-17.9-14.6-32.4-32.5-32.4ZM39,64.2c0-13.9,11.3-25.2,25.3-25.2s25.3,11.3,25.3,25.2-11.3,25.2-25.3,25.2-25.3-11.3-25.3-25.2Z"/>
</svg>