<svg width="156" height="156" viewBox="0 0 156 156" fill="none" xmlns="http://www.w3.org/2000/svg">
<g clip-path="url(#clip0_771_1807)">
<path d="M6.87573 98.9239C6.87573 97.4466 8.07098 96.2782 9.54827 96.2782C10.9987 96.2782 12.194 97.4466 12.194 98.9239C12.194 100.401 10.9988 101.57 9.54827 101.57C8.07099 101.563 6.87573 100.401 6.87573 98.9239Z" fill="white"/>
<path d="M96.7078 9.11944C96.7078 7.64216 97.8762 6.44689 99.3535 6.44689C100.831 6.44689 101.999 7.64214 101.999 9.11944C101.999 10.5699 100.831 11.7652 99.3535 11.7652C97.8695 11.7652 96.7078 10.5699 96.7078 9.11944Z" fill="white"/>
<path d="M144.678 17.7007L54.0213 17.7007L54.0213 130.504L144.678 130.504L144.678 17.7007ZM52.0737 13.8128L146.619 13.8128C147.136 13.8128 147.633 14.021 147.996 14.3836C148.358 14.7462 148.566 15.2364 148.566 15.7602L148.573 132.452C148.573 132.969 148.365 133.466 148.002 133.828C147.64 134.191 147.15 134.399 146.626 134.399L52.0735 134.399C51.5565 134.399 51.0596 134.191 50.697 133.828C50.3344 133.466 50.1262 132.975 50.1262 132.452L50.1262 15.7533C50.1262 15.2362 50.3344 14.7393 50.697 14.3767C51.0596 14.0141 51.5566 13.8128 52.0737 13.8128Z" fill="white"/>
<path d="M96.6545 142.717C96.6545 144.195 97.8497 145.417 99.3538 145.417C100.858 145.417 102.053 144.195 102.053 142.717C102.053 141.213 100.858 140.018 99.3538 140.018C97.8497 140.018 96.6545 141.213 96.6545 142.717ZM99.3538 149.305C95.7211 149.305 92.7666 146.35 92.7666 142.717C92.7666 139.058 95.7212 136.13 99.3538 136.13C102.986 136.13 105.941 139.058 105.941 142.717C105.934 146.35 102.98 149.305 99.3538 149.305Z" fill="white"/>
<path d="M43.1298 53.5919L18.1302 53.5919L18.1303 144.249L43.3842 144.249C43.2029 143.396 43.1223 142.537 43.1223 141.63L43.1298 53.5919ZM43.1298 46.5883L14.3708 46.5883C11.725 46.5883 9.31449 47.6492 7.57536 49.3884C5.83624 51.1543 4.74846 53.5382 4.74846 56.2108L4.75517 98.9247L4.75517 141.632C4.75517 144.304 5.84298 146.688 7.58208 148.454C9.3212 150.193 11.7319 151.254 14.3775 151.254L47.1332 151.254C46.2267 150.321 45.4478 149.287 44.8232 148.145L16.1845 148.139C15.6675 148.139 15.1706 147.93 14.808 147.568C14.4454 147.205 14.2372 146.715 14.2372 146.191L14.2372 51.6458C14.2372 51.1287 14.4454 50.6318 14.808 50.2692C15.1706 49.9066 15.6607 49.6984 16.1845 49.6984L43.1317 49.6984L43.1298 46.5883ZM49.8178 7.14564C48.0786 8.88478 47.0177 11.2955 47.0177 13.9411L47.0177 141.631C47.0177 144.303 48.0786 146.687 49.8178 148.453C51.5837 150.192 53.9676 151.253 56.6402 151.253L99.3541 151.253L142.061 151.246C144.734 151.246 147.117 150.186 148.884 148.446C150.623 146.68 151.684 144.297 151.684 141.624L151.684 13.9412C151.684 11.2955 150.623 8.88493 148.884 7.14581C147.118 5.40669 144.734 4.3189 142.061 4.3189L56.6419 4.31891C53.9693 4.31891 51.5856 5.40671 49.8195 7.14581L49.8178 7.14564ZM43.1298 13.9411C43.1298 6.50102 49.1731 0.430692 56.6402 0.430692L142.059 0.430688C149.526 0.430688 155.57 6.50085 155.57 13.9411L155.57 141.631C155.57 149.098 149.526 155.141 142.059 155.141L14.3697 155.141C6.92971 155.141 0.859375 149.098 0.859374 141.631L0.859371 56.2115C0.85937 48.7444 6.92953 42.7011 14.3697 42.7011L43.1288 42.7011L43.1298 13.9411Z" fill="white"/>
<path d="M30.8354 16.5319L28.5792 14.2757C27.8272 13.5236 27.8272 12.2813 28.5792 11.5292C29.3313 10.7772 30.5736 10.7772 31.3257 11.5292L36.9058 17.1026C37.0871 17.2839 37.2147 17.492 37.3221 17.7271C37.4228 17.9621 37.4765 18.2173 37.4765 18.4791C37.4765 18.7343 37.4228 18.9962 37.3221 19.2312C37.2214 19.4662 37.0871 19.6744 36.9058 19.8557L31.3324 25.4291C30.5803 26.1811 29.338 26.1811 28.5859 25.4291C27.8339 24.6501 27.8339 23.4347 28.5859 22.6826L30.8421 20.4264L28.6867 20.4264C25.759 20.4264 23.1401 21.5948 21.2196 23.5153C19.2992 25.4358 18.1106 28.0813 18.1106 30.9823L18.1106 35.0515C18.1106 36.1125 17.2579 36.9988 16.1634 36.9988C15.1024 36.9988 14.2161 36.1192 14.2161 35.0515L14.2161 30.9823C14.2161 22.9984 20.6959 16.5387 28.6867 16.5387L30.8354 16.5319Z" fill="#FF821C"/>
</g>
<defs>
<clipPath id="clip0_771_1807">
<rect width="156" height="156" fill="white" transform="translate(0 156) rotate(-90)"/>
</clipPath>
</defs>
</svg>
