<svg width="91" height="91" viewBox="0 0 91 91" fill="none" xmlns="http://www.w3.org/2000/svg">
<path d="M74.4493 20.2195C74.9907 19.7062 75.2579 19.0734 75.2579 18.328C75.2579 17.5826 74.9907 16.9358 74.4493 16.3945C73.936 15.8812 73.3032 15.6281 72.5579 15.6281C71.8125 15.6281 71.1657 15.8812 70.6243 16.3945L45.5575 41.5027L20.4493 16.3945C19.936 15.8812 19.3033 15.6281 18.5579 15.6281C17.8125 15.6281 17.1657 15.8812 16.6243 16.3945C16.111 16.9359 15.8579 17.5827 15.8579 18.328C15.8579 19.0733 16.111 19.7061 16.6243 20.2195L41.7325 45.3277L16.6243 70.3945C16.111 70.9359 15.8579 71.5827 15.8579 72.328C15.8579 73.0733 16.111 73.7061 16.6243 74.2195C17.1657 74.7609 17.8126 75.0281 18.5579 75.0281C19.3032 75.0281 19.936 74.7609 20.4493 74.2195L45.5575 49.1527L70.6243 74.2195C71.1657 74.7609 71.8126 75.0281 72.5579 75.0281C73.3032 75.0281 73.936 74.7609 74.4493 74.2195C74.9907 73.7062 75.2579 73.0734 75.2579 72.328C75.2579 71.5826 74.9907 70.9358 74.4493 70.3945L49.3825 45.3277L74.4493 20.2195Z" fill="white"/>
</svg>
