<svg width="90" height="90" viewBox="0 0 90 90" fill="none" xmlns="http://www.w3.org/2000/svg">
<path d="M50.4 14.4002C50.414 12.9764 51.7113 11.6721 53.1316 11.7002H72.9073C74.3171 11.7002 75.6003 12.9869 75.6003 14.4002V75.6002C75.6003 77.0134 74.3171 78.3002 72.9073 78.3002H53.1316C51.7078 78.3213 50.4 77.0275 50.4 75.6002C50.4 74.1729 51.7077 72.8791 53.1316 72.9002H70.2136V17.1002H53.1316C51.6937 17.1318 50.3859 15.8416 50.4 14.4002Z" fill="white"/>
<path d="M14.4 44.9925C14.4246 44.3491 14.6918 43.6038 15.1312 43.1362L29.5312 27.8362C30.5085 26.9608 32.3789 26.5987 33.4687 27.6112C34.5445 28.6097 34.5093 30.5467 33.4406 31.5487L23.3156 42.2929H60.3002C61.7908 42.2929 63.0002 43.5023 63.0002 44.9929C63.0002 46.4835 61.7908 47.6929 60.3002 47.6929H23.3156L33.4406 58.4371C34.3616 59.3617 34.5339 61.3656 33.4687 62.3746C32.407 63.3836 30.4664 63.0602 29.5312 62.1496L15.1312 46.8496C14.639 46.3258 14.4 45.7097 14.4 44.9925Z" fill="white"/>
</svg>
