<svg width="1175" height="100" viewBox="0 0 1175 100" fill="none" xmlns="http://www.w3.org/2000/svg">
<path d="M24.1953 15.7021V17.499C24.1953 19.6344 23.9284 21.5485 23.3945 23.2412C22.8607 24.9339 22.0924 26.3727 21.0898 27.5576C20.0872 28.7425 18.8828 29.6475 17.4766 30.2725C16.0833 30.8975 14.5208 31.21 12.7891 31.21C11.1094 31.21 9.56641 30.8975 8.16016 30.2725C6.76693 29.6475 5.55599 28.7425 4.52734 27.5576C3.51172 26.3727 2.72396 24.9339 2.16406 23.2412C1.60417 21.5485 1.32422 19.6344 1.32422 17.499V15.7021C1.32422 13.5667 1.59766 11.6592 2.14453 9.97949C2.70443 8.28678 3.49219 6.84798 4.50781 5.66309C5.52344 4.46517 6.72786 3.55371 8.12109 2.92871C9.52734 2.30371 11.0703 1.99121 12.75 1.99121C14.4818 1.99121 16.0443 2.30371 17.4375 2.92871C18.8438 3.55371 20.0482 4.46517 21.0508 5.66309C22.0664 6.84798 22.8411 8.28678 23.375 9.97949C23.9219 11.6592 24.1953 13.5667 24.1953 15.7021ZM20.4648 17.499V15.6631C20.4648 13.9704 20.2891 12.473 19.9375 11.1709C19.599 9.86882 19.0977 8.77507 18.4336 7.88965C17.7695 7.00423 16.9557 6.33366 15.9922 5.87793C15.0417 5.4222 13.9609 5.19434 12.75 5.19434C11.5781 5.19434 10.5169 5.4222 9.56641 5.87793C8.62891 6.33366 7.82161 7.00423 7.14453 7.88965C6.48047 8.77507 5.96615 9.86882 5.60156 11.1709C5.23698 12.473 5.05469 13.9704 5.05469 15.6631V17.499C5.05469 19.2048 5.23698 20.7152 5.60156 22.0303C5.96615 23.3324 6.48698 24.4326 7.16406 25.3311C7.85417 26.2165 8.66797 26.887 9.60547 27.3428C10.556 27.7985 11.6172 28.0264 12.7891 28.0264C14.013 28.0264 15.1003 27.7985 16.0508 27.3428C17.0013 26.887 17.8021 26.2165 18.4531 25.3311C19.1172 24.4326 19.6185 23.3324 19.957 22.0303C20.2956 20.7152 20.4648 19.2048 20.4648 17.499ZM42.2227 25.9365V9.68652H45.8555V30.8193H42.3984L42.2227 25.9365ZM42.9062 21.4834L44.4102 21.4443C44.4102 22.8506 44.2604 24.1527 43.9609 25.3506C43.6745 26.5355 43.2057 27.5641 42.5547 28.4365C41.9036 29.3089 41.0508 29.9925 39.9961 30.4873C38.9414 30.9691 37.6589 31.21 36.1484 31.21C35.1198 31.21 34.1758 31.0602 33.3164 30.7607C32.4701 30.4613 31.7409 29.999 31.1289 29.374C30.5169 28.749 30.0417 27.9352 29.7031 26.9326C29.3776 25.93 29.2148 24.7256 29.2148 23.3193V9.68652H32.8281V23.3584C32.8281 24.3089 32.9323 25.0967 33.1406 25.7217C33.362 26.3337 33.6549 26.8219 34.0195 27.1865C34.3971 27.5381 34.8138 27.7855 35.2695 27.9287C35.7383 28.0719 36.2201 28.1436 36.7148 28.1436C38.2513 28.1436 39.4688 27.8506 40.3672 27.2646C41.2656 26.6657 41.9102 25.8649 42.3008 24.8623C42.7044 23.8467 42.9062 22.7204 42.9062 21.4834ZM54.9766 13.0068V30.8193H51.3633V9.68652H54.8789L54.9766 13.0068ZM61.5781 9.56934L61.5586 12.9287C61.2591 12.8636 60.9727 12.8245 60.6992 12.8115C60.4388 12.7855 60.1393 12.7725 59.8008 12.7725C58.9674 12.7725 58.2318 12.9027 57.5938 13.1631C56.9557 13.4235 56.4154 13.7881 55.9727 14.2568C55.5299 14.7256 55.1784 15.2855 54.918 15.9365C54.6706 16.5745 54.5078 17.2777 54.4297 18.0459L53.4141 18.6318C53.4141 17.3558 53.5378 16.1579 53.7852 15.0381C54.0456 13.9183 54.4427 12.9287 54.9766 12.0693C55.5104 11.1969 56.1875 10.5199 57.0078 10.0381C57.8411 9.54329 58.8307 9.2959 59.9766 9.2959C60.237 9.2959 60.5365 9.32845 60.875 9.39355C61.2135 9.44564 61.4479 9.50423 61.5781 9.56934ZM78.4531 13.749V38.9443H74.8203V9.68652H78.1406L78.4531 13.749ZM92.6914 20.0771V20.4873C92.6914 22.0238 92.5091 23.4495 92.1445 24.7646C91.7799 26.0667 91.2461 27.1995 90.543 28.1631C89.8529 29.1266 89 29.8753 87.9844 30.4092C86.9688 30.943 85.8034 31.21 84.4883 31.21C83.1471 31.21 81.9622 30.9886 80.9336 30.5459C79.9049 30.1032 79.0326 29.4587 78.3164 28.6123C77.6003 27.766 77.0273 26.7503 76.5977 25.5654C76.181 24.3805 75.8945 23.0459 75.7383 21.5615V19.374C75.8945 17.8115 76.1875 16.4118 76.6172 15.1748C77.0469 13.9378 77.6133 12.8831 78.3164 12.0107C79.0326 11.1253 79.8984 10.4548 80.9141 9.99902C81.9297 9.53027 83.1016 9.2959 84.4297 9.2959C85.7578 9.2959 86.9362 9.55632 87.9648 10.0771C88.9935 10.585 89.8594 11.3141 90.5625 12.2646C91.2656 13.2152 91.793 14.3545 92.1445 15.6826C92.5091 16.9977 92.6914 18.4626 92.6914 20.0771ZM89.0586 20.4873V20.0771C89.0586 19.0225 88.9479 18.0329 88.7266 17.1084C88.5052 16.1709 88.1602 15.3506 87.6914 14.6475C87.2357 13.9313 86.6497 13.3714 85.9336 12.9678C85.2174 12.5511 84.3646 12.3428 83.375 12.3428C82.4635 12.3428 81.6693 12.499 80.9922 12.8115C80.3281 13.124 79.7617 13.5472 79.293 14.0811C78.8242 14.6019 78.4401 15.2008 78.1406 15.8779C77.8542 16.542 77.6393 17.2321 77.4961 17.9482V23.0068C77.7565 23.9183 78.1211 24.7777 78.5898 25.585C79.0586 26.3792 79.6836 27.0238 80.4648 27.5186C81.2461 28.0003 82.2292 28.2412 83.4141 28.2412C84.3906 28.2412 85.2305 28.0394 85.9336 27.6357C86.6497 27.2191 87.2357 26.6527 87.6914 25.9365C88.1602 25.2204 88.5052 24.4001 88.7266 23.4756C88.9479 22.5381 89.0586 21.542 89.0586 20.4873ZM101.227 0.819336V30.8193H97.5938V0.819336H101.227ZM119.488 27.2061V16.3271C119.488 15.4938 119.319 14.7712 118.98 14.1592C118.655 13.5342 118.16 13.0524 117.496 12.7139C116.832 12.3753 116.012 12.2061 115.035 12.2061C114.124 12.2061 113.323 12.3623 112.633 12.6748C111.956 12.9873 111.422 13.3975 111.031 13.9053C110.654 14.4131 110.465 14.96 110.465 15.5459H106.852C106.852 14.7907 107.047 14.042 107.438 13.2998C107.828 12.5576 108.388 11.887 109.117 11.2881C109.859 10.6761 110.745 10.1943 111.773 9.84277C112.815 9.47819 113.974 9.2959 115.25 9.2959C116.786 9.2959 118.141 9.55632 119.312 10.0771C120.497 10.598 121.422 11.3857 122.086 12.4404C122.763 13.4821 123.102 14.7907 123.102 16.3662V26.21C123.102 26.9131 123.16 27.6618 123.277 28.4561C123.408 29.2503 123.596 29.9339 123.844 30.5068V30.8193H120.074C119.892 30.4027 119.749 29.8493 119.645 29.1592C119.54 28.4561 119.488 27.805 119.488 27.2061ZM120.113 18.0068L120.152 20.5459H116.5C115.471 20.5459 114.553 20.6305 113.746 20.7998C112.939 20.9561 112.262 21.1969 111.715 21.5225C111.168 21.848 110.751 22.2581 110.465 22.7529C110.178 23.2347 110.035 23.8011 110.035 24.4521C110.035 25.1162 110.185 25.7217 110.484 26.2686C110.784 26.8154 111.233 27.2516 111.832 27.5771C112.444 27.8896 113.193 28.0459 114.078 28.0459C115.185 28.0459 116.161 27.8115 117.008 27.3428C117.854 26.874 118.525 26.3011 119.02 25.624C119.527 24.9469 119.801 24.2894 119.84 23.6514L121.383 25.3896C121.292 25.9365 121.044 26.542 120.641 27.2061C120.237 27.8701 119.697 28.5081 119.02 29.1201C118.355 29.7191 117.561 30.2204 116.637 30.624C115.725 31.0146 114.697 31.21 113.551 31.21C112.118 31.21 110.862 30.93 109.781 30.3701C108.714 29.8102 107.88 29.0615 107.281 28.124C106.695 27.1735 106.402 26.1123 106.402 24.9404C106.402 23.8076 106.624 22.8115 107.066 21.9521C107.509 21.0798 108.147 20.3571 108.98 19.7842C109.814 19.1982 110.816 18.7555 111.988 18.4561C113.16 18.1566 114.469 18.0068 115.914 18.0068H120.113ZM132.398 14.1982V30.8193H128.785V9.68652H132.203L132.398 14.1982ZM131.539 19.4521L130.035 19.3936C130.048 17.9482 130.263 16.6136 130.68 15.3896C131.096 14.1527 131.682 13.0785 132.438 12.167C133.193 11.2555 134.091 10.5524 135.133 10.0576C136.188 9.5498 137.353 9.2959 138.629 9.2959C139.671 9.2959 140.608 9.43913 141.441 9.72559C142.275 9.99902 142.984 10.4417 143.57 11.0537C144.169 11.6657 144.625 12.46 144.938 13.4365C145.25 14.4001 145.406 15.5785 145.406 16.9717V30.8193H141.773V16.9326C141.773 15.8258 141.611 14.9404 141.285 14.2764C140.96 13.5993 140.484 13.111 139.859 12.8115C139.234 12.499 138.466 12.3428 137.555 12.3428C136.656 12.3428 135.836 12.5316 135.094 12.9092C134.365 13.2868 133.733 13.8076 133.199 14.4717C132.678 15.1357 132.268 15.8975 131.969 16.7568C131.682 17.6032 131.539 18.5016 131.539 19.4521ZM163.199 25.2139C163.199 24.693 163.082 24.2113 162.848 23.7686C162.626 23.3128 162.164 22.9027 161.461 22.5381C160.771 22.1605 159.729 21.835 158.336 21.5615C157.164 21.3141 156.103 21.0212 155.152 20.6826C154.215 20.3441 153.414 19.9339 152.75 19.4521C152.099 18.9704 151.598 18.404 151.246 17.7529C150.895 17.1019 150.719 16.3402 150.719 15.4678C150.719 14.6344 150.901 13.8467 151.266 13.1045C151.643 12.3623 152.171 11.7048 152.848 11.1318C153.538 10.5589 154.365 10.1097 155.328 9.78418C156.292 9.45866 157.366 9.2959 158.551 9.2959C160.243 9.2959 161.689 9.59538 162.887 10.1943C164.085 10.7933 165.003 11.5941 165.641 12.5967C166.279 13.5863 166.598 14.6865 166.598 15.8975H162.984C162.984 15.3115 162.809 14.7451 162.457 14.1982C162.118 13.6383 161.617 13.1761 160.953 12.8115C160.302 12.4469 159.501 12.2646 158.551 12.2646C157.548 12.2646 156.734 12.4209 156.109 12.7334C155.497 13.0329 155.048 13.417 154.762 13.8857C154.488 14.3545 154.352 14.8493 154.352 15.3701C154.352 15.7607 154.417 16.1123 154.547 16.4248C154.69 16.7243 154.938 17.0042 155.289 17.2646C155.641 17.512 156.135 17.7464 156.773 17.9678C157.411 18.1891 158.225 18.4105 159.215 18.6318C160.947 19.0225 162.372 19.4912 163.492 20.0381C164.612 20.585 165.445 21.2555 165.992 22.0498C166.539 22.8441 166.812 23.8076 166.812 24.9404C166.812 25.8649 166.617 26.7113 166.227 27.4795C165.849 28.2477 165.296 28.9118 164.566 29.4717C163.85 30.0186 162.991 30.4482 161.988 30.7607C160.999 31.0602 159.885 31.21 158.648 31.21C156.786 31.21 155.211 30.8779 153.922 30.2139C152.633 29.5498 151.656 28.6904 150.992 27.6357C150.328 26.5811 149.996 25.4678 149.996 24.2959H153.629C153.681 25.2855 153.967 26.0732 154.488 26.6592C155.009 27.2321 155.647 27.6423 156.402 27.8896C157.158 28.124 157.906 28.2412 158.648 28.2412C159.638 28.2412 160.465 28.111 161.129 27.8506C161.806 27.5902 162.32 27.2321 162.672 26.7764C163.023 26.3206 163.199 25.7998 163.199 25.2139ZM185.094 13.749V38.9443H181.461V9.68652H184.781L185.094 13.749ZM199.332 20.0771V20.4873C199.332 22.0238 199.15 23.4495 198.785 24.7646C198.421 26.0667 197.887 27.1995 197.184 28.1631C196.493 29.1266 195.641 29.8753 194.625 30.4092C193.609 30.943 192.444 31.21 191.129 31.21C189.788 31.21 188.603 30.9886 187.574 30.5459C186.546 30.1032 185.673 29.4587 184.957 28.6123C184.241 27.766 183.668 26.7503 183.238 25.5654C182.822 24.3805 182.535 23.0459 182.379 21.5615V19.374C182.535 17.8115 182.828 16.4118 183.258 15.1748C183.688 13.9378 184.254 12.8831 184.957 12.0107C185.673 11.1253 186.539 10.4548 187.555 9.99902C188.57 9.53027 189.742 9.2959 191.07 9.2959C192.398 9.2959 193.577 9.55632 194.605 10.0771C195.634 10.585 196.5 11.3141 197.203 12.2646C197.906 13.2152 198.434 14.3545 198.785 15.6826C199.15 16.9977 199.332 18.4626 199.332 20.0771ZM195.699 20.4873V20.0771C195.699 19.0225 195.589 18.0329 195.367 17.1084C195.146 16.1709 194.801 15.3506 194.332 14.6475C193.876 13.9313 193.29 13.3714 192.574 12.9678C191.858 12.5511 191.005 12.3428 190.016 12.3428C189.104 12.3428 188.31 12.499 187.633 12.8115C186.969 13.124 186.402 13.5472 185.934 14.0811C185.465 14.6019 185.081 15.2008 184.781 15.8779C184.495 16.542 184.28 17.2321 184.137 17.9482V23.0068C184.397 23.9183 184.762 24.7777 185.23 25.585C185.699 26.3792 186.324 27.0238 187.105 27.5186C187.887 28.0003 188.87 28.2412 190.055 28.2412C191.031 28.2412 191.871 28.0394 192.574 27.6357C193.29 27.2191 193.876 26.6527 194.332 25.9365C194.801 25.2204 195.146 24.4001 195.367 23.4756C195.589 22.5381 195.699 21.542 195.699 20.4873ZM216.871 25.9365V9.68652H220.504V30.8193H217.047L216.871 25.9365ZM217.555 21.4834L219.059 21.4443C219.059 22.8506 218.909 24.1527 218.609 25.3506C218.323 26.5355 217.854 27.5641 217.203 28.4365C216.552 29.3089 215.699 29.9925 214.645 30.4873C213.59 30.9691 212.307 31.21 210.797 31.21C209.768 31.21 208.824 31.0602 207.965 30.7607C207.118 30.4613 206.389 29.999 205.777 29.374C205.165 28.749 204.69 27.9352 204.352 26.9326C204.026 25.93 203.863 24.7256 203.863 23.3193V9.68652H207.477V23.3584C207.477 24.3089 207.581 25.0967 207.789 25.7217C208.01 26.3337 208.303 26.8219 208.668 27.1865C209.046 27.5381 209.462 27.7855 209.918 27.9287C210.387 28.0719 210.868 28.1436 211.363 28.1436C212.9 28.1436 214.117 27.8506 215.016 27.2646C215.914 26.6657 216.559 25.8649 216.949 24.8623C217.353 23.8467 217.555 22.7204 217.555 21.4834ZM234.859 9.68652V12.46H223.434V9.68652H234.859ZM227.301 4.5498H230.914V25.585C230.914 26.3011 231.025 26.8415 231.246 27.2061C231.467 27.5706 231.754 27.8115 232.105 27.9287C232.457 28.0459 232.835 28.1045 233.238 28.1045C233.538 28.1045 233.85 28.0785 234.176 28.0264C234.514 27.9613 234.768 27.9092 234.938 27.8701L234.957 30.8193C234.671 30.9105 234.293 30.9951 233.824 31.0732C233.368 31.1644 232.815 31.21 232.164 31.21C231.279 31.21 230.465 31.0342 229.723 30.6826C228.98 30.3311 228.388 29.7451 227.945 28.9248C227.516 28.0915 227.301 26.9717 227.301 25.5654V4.5498ZM254.957 28.6318L260.836 9.68652H264.703L256.227 34.0811C256.031 34.6019 255.771 35.1618 255.445 35.7607C255.133 36.3727 254.729 36.9521 254.234 37.499C253.74 38.0459 253.141 38.4886 252.438 38.8271C251.747 39.1787 250.921 39.3545 249.957 39.3545C249.671 39.3545 249.306 39.3154 248.863 39.2373C248.421 39.1592 248.108 39.0941 247.926 39.042L247.906 36.1123C248.01 36.1253 248.173 36.1383 248.395 36.1514C248.629 36.1774 248.792 36.1904 248.883 36.1904C249.703 36.1904 250.4 36.0798 250.973 35.8584C251.546 35.6501 252.027 35.292 252.418 34.7842C252.822 34.2894 253.167 33.6058 253.453 32.7334L254.957 28.6318ZM250.641 9.68652L256.129 26.0928L257.066 29.9014L254.469 31.2295L246.695 9.68652H250.641ZM266.695 20.4873V20.0381C266.695 18.5146 266.917 17.1019 267.359 15.7998C267.802 14.4847 268.44 13.3454 269.273 12.3818C270.107 11.4053 271.116 10.6501 272.301 10.1162C273.486 9.56934 274.814 9.2959 276.285 9.2959C277.77 9.2959 279.104 9.56934 280.289 10.1162C281.487 10.6501 282.503 11.4053 283.336 12.3818C284.182 13.3454 284.827 14.4847 285.27 15.7998C285.712 17.1019 285.934 18.5146 285.934 20.0381V20.4873C285.934 22.0107 285.712 23.4235 285.27 24.7256C284.827 26.0277 284.182 27.167 283.336 28.1436C282.503 29.1071 281.493 29.8623 280.309 30.4092C279.137 30.943 277.809 31.21 276.324 31.21C274.84 31.21 273.505 30.943 272.32 30.4092C271.135 29.8623 270.12 29.1071 269.273 28.1436C268.44 27.167 267.802 26.0277 267.359 24.7256C266.917 23.4235 266.695 22.0107 266.695 20.4873ZM270.309 20.0381V20.4873C270.309 21.542 270.432 22.5381 270.68 23.4756C270.927 24.4001 271.298 25.2204 271.793 25.9365C272.301 26.6527 272.932 27.2191 273.688 27.6357C274.443 28.0394 275.322 28.2412 276.324 28.2412C277.314 28.2412 278.18 28.0394 278.922 27.6357C279.677 27.2191 280.302 26.6527 280.797 25.9365C281.292 25.2204 281.663 24.4001 281.91 23.4756C282.171 22.5381 282.301 21.542 282.301 20.4873V20.0381C282.301 18.9964 282.171 18.0133 281.91 17.0889C281.663 16.1514 281.285 15.3245 280.777 14.6084C280.283 13.8792 279.658 13.3063 278.902 12.8896C278.16 12.473 277.288 12.2646 276.285 12.2646C275.296 12.2646 274.423 12.473 273.668 12.8896C272.926 13.3063 272.301 13.8792 271.793 14.6084C271.298 15.3245 270.927 16.1514 270.68 17.0889C270.432 18.0133 270.309 18.9964 270.309 20.0381ZM303.395 25.9365V9.68652H307.027V30.8193H303.57L303.395 25.9365ZM304.078 21.4834L305.582 21.4443C305.582 22.8506 305.432 24.1527 305.133 25.3506C304.846 26.5355 304.378 27.5641 303.727 28.4365C303.076 29.3089 302.223 29.9925 301.168 30.4873C300.113 30.9691 298.831 31.21 297.32 31.21C296.292 31.21 295.348 31.0602 294.488 30.7607C293.642 30.4613 292.913 29.999 292.301 29.374C291.689 28.749 291.214 27.9352 290.875 26.9326C290.549 25.93 290.387 24.7256 290.387 23.3193V9.68652H294V23.3584C294 24.3089 294.104 25.0967 294.312 25.7217C294.534 26.3337 294.827 26.8219 295.191 27.1865C295.569 27.5381 295.986 27.7855 296.441 27.9287C296.91 28.0719 297.392 28.1436 297.887 28.1436C299.423 28.1436 300.641 27.8506 301.539 27.2646C302.438 26.6657 303.082 25.8649 303.473 24.8623C303.876 23.8467 304.078 22.7204 304.078 21.4834ZM326.383 9.68652V30.8193H322.75V9.68652H326.383ZM322.477 4.08105C322.477 3.49512 322.652 3.00033 323.004 2.59668C323.368 2.19303 323.902 1.99121 324.605 1.99121C325.296 1.99121 325.823 2.19303 326.188 2.59668C326.565 3.00033 326.754 3.49512 326.754 4.08105C326.754 4.64095 326.565 5.12272 326.188 5.52637C325.823 5.91699 325.296 6.1123 324.605 6.1123C323.902 6.1123 323.368 5.91699 323.004 5.52637C322.652 5.12272 322.477 4.64095 322.477 4.08105ZM335.797 14.1982V30.8193H332.184V9.68652H335.602L335.797 14.1982ZM334.938 19.4521L333.434 19.3936C333.447 17.9482 333.661 16.6136 334.078 15.3896C334.495 14.1527 335.081 13.0785 335.836 12.167C336.591 11.2555 337.49 10.5524 338.531 10.0576C339.586 9.5498 340.751 9.2959 342.027 9.2959C343.069 9.2959 344.007 9.43913 344.84 9.72559C345.673 9.99902 346.383 10.4417 346.969 11.0537C347.568 11.6657 348.023 12.46 348.336 13.4365C348.648 14.4001 348.805 15.5785 348.805 16.9717V30.8193H345.172V16.9326C345.172 15.8258 345.009 14.9404 344.684 14.2764C344.358 13.5993 343.883 13.111 343.258 12.8115C342.633 12.499 341.865 12.3428 340.953 12.3428C340.055 12.3428 339.234 12.5316 338.492 12.9092C337.763 13.2868 337.132 13.8076 336.598 14.4717C336.077 15.1357 335.667 15.8975 335.367 16.7568C335.081 17.6032 334.938 18.5016 334.938 19.4521ZM372.672 28.2412C373.531 28.2412 374.326 28.0654 375.055 27.7139C375.784 27.3623 376.383 26.8805 376.852 26.2686C377.32 25.6436 377.587 24.9339 377.652 24.1396H381.09C381.025 25.3896 380.602 26.555 379.82 27.6357C379.052 28.7035 378.043 29.5693 376.793 30.2334C375.543 30.8844 374.169 31.21 372.672 31.21C371.083 31.21 369.697 30.93 368.512 30.3701C367.34 29.8102 366.363 29.042 365.582 28.0654C364.814 27.0889 364.234 25.9691 363.844 24.7061C363.466 23.43 363.277 22.0824 363.277 20.6631V19.8428C363.277 18.4235 363.466 17.0824 363.844 15.8193C364.234 14.5433 364.814 13.417 365.582 12.4404C366.363 11.4639 367.34 10.6956 368.512 10.1357C369.697 9.57585 371.083 9.2959 372.672 9.2959C374.326 9.2959 375.771 9.63444 377.008 10.3115C378.245 10.9756 379.215 11.887 379.918 13.0459C380.634 14.1917 381.025 15.4938 381.09 16.9521H377.652C377.587 16.0798 377.34 15.292 376.91 14.5889C376.493 13.8857 375.921 13.3258 375.191 12.9092C374.475 12.4795 373.635 12.2646 372.672 12.2646C371.565 12.2646 370.634 12.486 369.879 12.9287C369.137 13.3584 368.544 13.9443 368.102 14.6865C367.672 15.4157 367.359 16.2295 367.164 17.1279C366.982 18.0133 366.891 18.9183 366.891 19.8428V20.6631C366.891 21.5876 366.982 22.499 367.164 23.3975C367.346 24.2959 367.652 25.1097 368.082 25.8389C368.525 26.568 369.117 27.154 369.859 27.5967C370.615 28.0264 371.552 28.2412 372.672 28.2412ZM384.195 20.4873V20.0381C384.195 18.5146 384.417 17.1019 384.859 15.7998C385.302 14.4847 385.94 13.3454 386.773 12.3818C387.607 11.4053 388.616 10.6501 389.801 10.1162C390.986 9.56934 392.314 9.2959 393.785 9.2959C395.27 9.2959 396.604 9.56934 397.789 10.1162C398.987 10.6501 400.003 11.4053 400.836 12.3818C401.682 13.3454 402.327 14.4847 402.77 15.7998C403.212 17.1019 403.434 18.5146 403.434 20.0381V20.4873C403.434 22.0107 403.212 23.4235 402.77 24.7256C402.327 26.0277 401.682 27.167 400.836 28.1436C400.003 29.1071 398.993 29.8623 397.809 30.4092C396.637 30.943 395.309 31.21 393.824 31.21C392.34 31.21 391.005 30.943 389.82 30.4092C388.635 29.8623 387.62 29.1071 386.773 28.1436C385.94 27.167 385.302 26.0277 384.859 24.7256C384.417 23.4235 384.195 22.0107 384.195 20.4873ZM387.809 20.0381V20.4873C387.809 21.542 387.932 22.5381 388.18 23.4756C388.427 24.4001 388.798 25.2204 389.293 25.9365C389.801 26.6527 390.432 27.2191 391.188 27.6357C391.943 28.0394 392.822 28.2412 393.824 28.2412C394.814 28.2412 395.68 28.0394 396.422 27.6357C397.177 27.2191 397.802 26.6527 398.297 25.9365C398.792 25.2204 399.163 24.4001 399.41 23.4756C399.671 22.5381 399.801 21.542 399.801 20.4873V20.0381C399.801 18.9964 399.671 18.0133 399.41 17.0889C399.163 16.1514 398.785 15.3245 398.277 14.6084C397.783 13.8792 397.158 13.3063 396.402 12.8896C395.66 12.473 394.788 12.2646 393.785 12.2646C392.796 12.2646 391.923 12.473 391.168 12.8896C390.426 13.3063 389.801 13.8792 389.293 14.6084C388.798 15.3245 388.427 16.1514 388.18 17.0889C387.932 18.0133 387.809 18.9964 387.809 20.0381ZM411.559 13.8857V30.8193H407.926V9.68652H411.363L411.559 13.8857ZM410.816 19.4521L409.137 19.3936C409.15 17.9482 409.339 16.6136 409.703 15.3896C410.068 14.1527 410.608 13.0785 411.324 12.167C412.04 11.2555 412.932 10.5524 414 10.0576C415.068 9.5498 416.305 9.2959 417.711 9.2959C418.701 9.2959 419.612 9.43913 420.445 9.72559C421.279 9.99902 422.001 10.4352 422.613 11.0342C423.225 11.6331 423.701 12.4014 424.039 13.3389C424.378 14.2764 424.547 15.4092 424.547 16.7373V30.8193H420.934V16.9131C420.934 15.8063 420.745 14.9209 420.367 14.2568C420.003 13.5928 419.482 13.111 418.805 12.8115C418.128 12.499 417.333 12.3428 416.422 12.3428C415.354 12.3428 414.462 12.5316 413.746 12.9092C413.03 13.2868 412.457 13.8076 412.027 14.4717C411.598 15.1357 411.285 15.8975 411.09 16.7568C410.908 17.6032 410.816 18.5016 410.816 19.4521ZM424.508 17.46L422.086 18.2021C422.099 17.0433 422.288 15.93 422.652 14.8623C423.03 13.7946 423.57 12.8441 424.273 12.0107C424.99 11.1774 425.868 10.5199 426.91 10.0381C427.952 9.54329 429.143 9.2959 430.484 9.2959C431.617 9.2959 432.62 9.44564 433.492 9.74512C434.378 10.0446 435.12 10.5068 435.719 11.1318C436.331 11.7438 436.793 12.5316 437.105 13.4951C437.418 14.4587 437.574 15.6045 437.574 16.9326V30.8193H433.941V16.8936C433.941 15.7087 433.753 14.7907 433.375 14.1396C433.01 13.4756 432.49 13.0133 431.812 12.7529C431.148 12.4795 430.354 12.3428 429.43 12.3428C428.635 12.3428 427.932 12.4795 427.32 12.7529C426.708 13.0264 426.194 13.404 425.777 13.8857C425.361 14.3545 425.042 14.8949 424.82 15.5068C424.612 16.1188 424.508 16.7699 424.508 17.46ZM446.656 13.749V38.9443H443.023V9.68652H446.344L446.656 13.749ZM460.895 20.0771V20.4873C460.895 22.0238 460.712 23.4495 460.348 24.7646C459.983 26.0667 459.449 27.1995 458.746 28.1631C458.056 29.1266 457.203 29.8753 456.188 30.4092C455.172 30.943 454.007 31.21 452.691 31.21C451.35 31.21 450.165 30.9886 449.137 30.5459C448.108 30.1032 447.236 29.4587 446.52 28.6123C445.803 27.766 445.23 26.7503 444.801 25.5654C444.384 24.3805 444.098 23.0459 443.941 21.5615V19.374C444.098 17.8115 444.391 16.4118 444.82 15.1748C445.25 13.9378 445.816 12.8831 446.52 12.0107C447.236 11.1253 448.102 10.4548 449.117 9.99902C450.133 9.53027 451.305 9.2959 452.633 9.2959C453.961 9.2959 455.139 9.55632 456.168 10.0771C457.197 10.585 458.062 11.3141 458.766 12.2646C459.469 13.2152 459.996 14.3545 460.348 15.6826C460.712 16.9977 460.895 18.4626 460.895 20.0771ZM457.262 20.4873V20.0771C457.262 19.0225 457.151 18.0329 456.93 17.1084C456.708 16.1709 456.363 15.3506 455.895 14.6475C455.439 13.9313 454.853 13.3714 454.137 12.9678C453.421 12.5511 452.568 12.3428 451.578 12.3428C450.667 12.3428 449.872 12.499 449.195 12.8115C448.531 13.124 447.965 13.5472 447.496 14.0811C447.027 14.6019 446.643 15.2008 446.344 15.8779C446.057 16.542 445.842 17.2321 445.699 17.9482V23.0068C445.96 23.9183 446.324 24.7777 446.793 25.585C447.262 26.3792 447.887 27.0238 448.668 27.5186C449.449 28.0003 450.432 28.2412 451.617 28.2412C452.594 28.2412 453.434 28.0394 454.137 27.6357C454.853 27.2191 455.439 26.6527 455.895 25.9365C456.363 25.2204 456.708 24.4001 456.93 23.4756C457.151 22.5381 457.262 21.542 457.262 20.4873ZM469.43 0.819336V30.8193H465.797V0.819336H469.43ZM484 31.21C482.529 31.21 481.194 30.9626 479.996 30.4678C478.811 29.96 477.789 29.2503 476.93 28.3389C476.083 27.4274 475.432 26.3467 474.977 25.0967C474.521 23.8467 474.293 22.4795 474.293 20.9951V20.1748C474.293 18.4561 474.547 16.9261 475.055 15.585C475.562 14.2308 476.253 13.085 477.125 12.1475C477.997 11.21 478.987 10.5003 480.094 10.0186C481.201 9.53678 482.346 9.2959 483.531 9.2959C485.042 9.2959 486.344 9.55632 487.438 10.0771C488.544 10.598 489.449 11.3271 490.152 12.2646C490.855 13.1891 491.376 14.2829 491.715 15.5459C492.053 16.7959 492.223 18.1631 492.223 19.6475V21.2686H476.441V18.3193H488.609V18.0459C488.557 17.1084 488.362 16.1969 488.023 15.3115C487.698 14.4261 487.177 13.6969 486.461 13.124C485.745 12.5511 484.768 12.2646 483.531 12.2646C482.711 12.2646 481.956 12.4404 481.266 12.792C480.576 13.1305 479.983 13.6383 479.488 14.3154C478.993 14.9925 478.609 15.8193 478.336 16.7959C478.062 17.7725 477.926 18.8988 477.926 20.1748V20.9951C477.926 21.9977 478.062 22.9417 478.336 23.8271C478.622 24.6995 479.033 25.4678 479.566 26.1318C480.113 26.7959 480.771 27.3167 481.539 27.6943C482.32 28.0719 483.206 28.2607 484.195 28.2607C485.471 28.2607 486.552 28.0003 487.438 27.4795C488.323 26.9587 489.098 26.262 489.762 25.3896L491.949 27.1279C491.493 27.818 490.914 28.4756 490.211 29.1006C489.508 29.7256 488.642 30.2334 487.613 30.624C486.598 31.0146 485.393 31.21 484 31.21ZM505.289 9.68652V12.46H493.863V9.68652H505.289ZM497.73 4.5498H501.344V25.585C501.344 26.3011 501.454 26.8415 501.676 27.2061C501.897 27.5706 502.184 27.8115 502.535 27.9287C502.887 28.0459 503.264 28.1045 503.668 28.1045C503.967 28.1045 504.28 28.0785 504.605 28.0264C504.944 27.9613 505.198 27.9092 505.367 27.8701L505.387 30.8193C505.1 30.9105 504.723 30.9951 504.254 31.0732C503.798 31.1644 503.245 31.21 502.594 31.21C501.708 31.21 500.895 31.0342 500.152 30.6826C499.41 30.3311 498.818 29.7451 498.375 28.9248C497.945 28.0915 497.73 26.9717 497.73 25.5654V4.5498ZM518.297 31.21C516.826 31.21 515.491 30.9626 514.293 30.4678C513.108 29.96 512.086 29.2503 511.227 28.3389C510.38 27.4274 509.729 26.3467 509.273 25.0967C508.818 23.8467 508.59 22.4795 508.59 20.9951V20.1748C508.59 18.4561 508.844 16.9261 509.352 15.585C509.859 14.2308 510.549 13.085 511.422 12.1475C512.294 11.21 513.284 10.5003 514.391 10.0186C515.497 9.53678 516.643 9.2959 517.828 9.2959C519.339 9.2959 520.641 9.55632 521.734 10.0771C522.841 10.598 523.746 11.3271 524.449 12.2646C525.152 13.1891 525.673 14.2829 526.012 15.5459C526.35 16.7959 526.52 18.1631 526.52 19.6475V21.2686H510.738V18.3193H522.906V18.0459C522.854 17.1084 522.659 16.1969 522.32 15.3115C521.995 14.4261 521.474 13.6969 520.758 13.124C520.042 12.5511 519.065 12.2646 517.828 12.2646C517.008 12.2646 516.253 12.4404 515.562 12.792C514.872 13.1305 514.28 13.6383 513.785 14.3154C513.29 14.9925 512.906 15.8193 512.633 16.7959C512.359 17.7725 512.223 18.8988 512.223 20.1748V20.9951C512.223 21.9977 512.359 22.9417 512.633 23.8271C512.919 24.6995 513.329 25.4678 513.863 26.1318C514.41 26.7959 515.068 27.3167 515.836 27.6943C516.617 28.0719 517.503 28.2607 518.492 28.2607C519.768 28.2607 520.849 28.0003 521.734 27.4795C522.62 26.9587 523.395 26.262 524.059 25.3896L526.246 27.1279C525.79 27.818 525.211 28.4756 524.508 29.1006C523.805 29.7256 522.939 30.2334 521.91 30.624C520.895 31.0146 519.69 31.21 518.297 31.21ZM549.117 28.2412C549.977 28.2412 550.771 28.0654 551.5 27.7139C552.229 27.3623 552.828 26.8805 553.297 26.2686C553.766 25.6436 554.033 24.9339 554.098 24.1396H557.535C557.47 25.3896 557.047 26.555 556.266 27.6357C555.497 28.7035 554.488 29.5693 553.238 30.2334C551.988 30.8844 550.615 31.21 549.117 31.21C547.529 31.21 546.142 30.93 544.957 30.3701C543.785 29.8102 542.809 29.042 542.027 28.0654C541.259 27.0889 540.68 25.9691 540.289 24.7061C539.911 23.43 539.723 22.0824 539.723 20.6631V19.8428C539.723 18.4235 539.911 17.0824 540.289 15.8193C540.68 14.5433 541.259 13.417 542.027 12.4404C542.809 11.4639 543.785 10.6956 544.957 10.1357C546.142 9.57585 547.529 9.2959 549.117 9.2959C550.771 9.2959 552.216 9.63444 553.453 10.3115C554.69 10.9756 555.66 11.887 556.363 13.0459C557.079 14.1917 557.47 15.4938 557.535 16.9521H554.098C554.033 16.0798 553.785 15.292 553.355 14.5889C552.939 13.8857 552.366 13.3258 551.637 12.9092C550.921 12.4795 550.081 12.2646 549.117 12.2646C548.01 12.2646 547.079 12.486 546.324 12.9287C545.582 13.3584 544.99 13.9443 544.547 14.6865C544.117 15.4157 543.805 16.2295 543.609 17.1279C543.427 18.0133 543.336 18.9183 543.336 19.8428V20.6631C543.336 21.5876 543.427 22.499 543.609 23.3975C543.792 24.2959 544.098 25.1097 544.527 25.8389C544.97 26.568 545.562 27.154 546.305 27.5967C547.06 28.0264 547.997 28.2412 549.117 28.2412ZM560.641 20.4873V20.0381C560.641 18.5146 560.862 17.1019 561.305 15.7998C561.747 14.4847 562.385 13.3454 563.219 12.3818C564.052 11.4053 565.061 10.6501 566.246 10.1162C567.431 9.56934 568.759 9.2959 570.23 9.2959C571.715 9.2959 573.049 9.56934 574.234 10.1162C575.432 10.6501 576.448 11.4053 577.281 12.3818C578.128 13.3454 578.772 14.4847 579.215 15.7998C579.658 17.1019 579.879 18.5146 579.879 20.0381V20.4873C579.879 22.0107 579.658 23.4235 579.215 24.7256C578.772 26.0277 578.128 27.167 577.281 28.1436C576.448 29.1071 575.439 29.8623 574.254 30.4092C573.082 30.943 571.754 31.21 570.27 31.21C568.785 31.21 567.451 30.943 566.266 30.4092C565.081 29.8623 564.065 29.1071 563.219 28.1436C562.385 27.167 561.747 26.0277 561.305 24.7256C560.862 23.4235 560.641 22.0107 560.641 20.4873ZM564.254 20.0381V20.4873C564.254 21.542 564.378 22.5381 564.625 23.4756C564.872 24.4001 565.243 25.2204 565.738 25.9365C566.246 26.6527 566.878 27.2191 567.633 27.6357C568.388 28.0394 569.267 28.2412 570.27 28.2412C571.259 28.2412 572.125 28.0394 572.867 27.6357C573.622 27.2191 574.247 26.6527 574.742 25.9365C575.237 25.2204 575.608 24.4001 575.855 23.4756C576.116 22.5381 576.246 21.542 576.246 20.4873V20.0381C576.246 18.9964 576.116 18.0133 575.855 17.0889C575.608 16.1514 575.23 15.3245 574.723 14.6084C574.228 13.8792 573.603 13.3063 572.848 12.8896C572.105 12.473 571.233 12.2646 570.23 12.2646C569.241 12.2646 568.368 12.473 567.613 12.8896C566.871 13.3063 566.246 13.8792 565.738 14.6084C565.243 15.3245 564.872 16.1514 564.625 17.0889C564.378 18.0133 564.254 18.9964 564.254 20.0381ZM588.023 14.1982V30.8193H584.41V9.68652H587.828L588.023 14.1982ZM587.164 19.4521L585.66 19.3936C585.673 17.9482 585.888 16.6136 586.305 15.3896C586.721 14.1527 587.307 13.0785 588.062 12.167C588.818 11.2555 589.716 10.5524 590.758 10.0576C591.812 9.5498 592.978 9.2959 594.254 9.2959C595.296 9.2959 596.233 9.43913 597.066 9.72559C597.9 9.99902 598.609 10.4417 599.195 11.0537C599.794 11.6657 600.25 12.46 600.562 13.4365C600.875 14.4001 601.031 15.5785 601.031 16.9717V30.8193H597.398V16.9326C597.398 15.8258 597.236 14.9404 596.91 14.2764C596.585 13.5993 596.109 13.111 595.484 12.8115C594.859 12.499 594.091 12.3428 593.18 12.3428C592.281 12.3428 591.461 12.5316 590.719 12.9092C589.99 13.2868 589.358 13.8076 588.824 14.4717C588.303 15.1357 587.893 15.8975 587.594 16.7568C587.307 17.6032 587.164 18.5016 587.164 19.4521ZM615.367 9.68652V12.46H603.941V9.68652H615.367ZM607.809 4.5498H611.422V25.585C611.422 26.3011 611.533 26.8415 611.754 27.2061C611.975 27.5706 612.262 27.8115 612.613 27.9287C612.965 28.0459 613.342 28.1045 613.746 28.1045C614.046 28.1045 614.358 28.0785 614.684 28.0264C615.022 27.9613 615.276 27.9092 615.445 27.8701L615.465 30.8193C615.178 30.9105 614.801 30.9951 614.332 31.0732C613.876 31.1644 613.323 31.21 612.672 31.21C611.786 31.21 610.973 31.0342 610.23 30.6826C609.488 30.3311 608.896 29.7451 608.453 28.9248C608.023 28.0915 607.809 26.9717 607.809 25.5654V4.5498ZM623.219 13.0068V30.8193H619.605V9.68652H623.121L623.219 13.0068ZM629.82 9.56934L629.801 12.9287C629.501 12.8636 629.215 12.8245 628.941 12.8115C628.681 12.7855 628.382 12.7725 628.043 12.7725C627.21 12.7725 626.474 12.9027 625.836 13.1631C625.198 13.4235 624.658 13.7881 624.215 14.2568C623.772 14.7256 623.421 15.2855 623.16 15.9365C622.913 16.5745 622.75 17.2777 622.672 18.0459L621.656 18.6318C621.656 17.3558 621.78 16.1579 622.027 15.0381C622.288 13.9183 622.685 12.9287 623.219 12.0693C623.753 11.1969 624.43 10.5199 625.25 10.0381C626.083 9.54329 627.073 9.2959 628.219 9.2959C628.479 9.2959 628.779 9.32845 629.117 9.39355C629.456 9.44564 629.69 9.50423 629.82 9.56934ZM631.812 20.4873V20.0381C631.812 18.5146 632.034 17.1019 632.477 15.7998C632.919 14.4847 633.557 13.3454 634.391 12.3818C635.224 11.4053 636.233 10.6501 637.418 10.1162C638.603 9.56934 639.931 9.2959 641.402 9.2959C642.887 9.2959 644.221 9.56934 645.406 10.1162C646.604 10.6501 647.62 11.4053 648.453 12.3818C649.299 13.3454 649.944 14.4847 650.387 15.7998C650.829 17.1019 651.051 18.5146 651.051 20.0381V20.4873C651.051 22.0107 650.829 23.4235 650.387 24.7256C649.944 26.0277 649.299 27.167 648.453 28.1436C647.62 29.1071 646.611 29.8623 645.426 30.4092C644.254 30.943 642.926 31.21 641.441 31.21C639.957 31.21 638.622 30.943 637.438 30.4092C636.253 29.8623 635.237 29.1071 634.391 28.1436C633.557 27.167 632.919 26.0277 632.477 24.7256C632.034 23.4235 631.812 22.0107 631.812 20.4873ZM635.426 20.0381V20.4873C635.426 21.542 635.549 22.5381 635.797 23.4756C636.044 24.4001 636.415 25.2204 636.91 25.9365C637.418 26.6527 638.049 27.2191 638.805 27.6357C639.56 28.0394 640.439 28.2412 641.441 28.2412C642.431 28.2412 643.297 28.0394 644.039 27.6357C644.794 27.2191 645.419 26.6527 645.914 25.9365C646.409 25.2204 646.78 24.4001 647.027 23.4756C647.288 22.5381 647.418 21.542 647.418 20.4873V20.0381C647.418 18.9964 647.288 18.0133 647.027 17.0889C646.78 16.1514 646.402 15.3245 645.895 14.6084C645.4 13.8792 644.775 13.3063 644.02 12.8896C643.277 12.473 642.405 12.2646 641.402 12.2646C640.413 12.2646 639.54 12.473 638.785 12.8896C638.043 13.3063 637.418 13.8792 636.91 14.6084C636.415 15.3245 636.044 16.1514 635.797 17.0889C635.549 18.0133 635.426 18.9964 635.426 20.0381ZM659.508 0.819336V30.8193H655.875V0.819336H659.508ZM687.691 27.2061V16.3271C687.691 15.4938 687.522 14.7712 687.184 14.1592C686.858 13.5342 686.363 13.0524 685.699 12.7139C685.035 12.3753 684.215 12.2061 683.238 12.2061C682.327 12.2061 681.526 12.3623 680.836 12.6748C680.159 12.9873 679.625 13.3975 679.234 13.9053C678.857 14.4131 678.668 14.96 678.668 15.5459H675.055C675.055 14.7907 675.25 14.042 675.641 13.2998C676.031 12.5576 676.591 11.887 677.32 11.2881C678.062 10.6761 678.948 10.1943 679.977 9.84277C681.018 9.47819 682.177 9.2959 683.453 9.2959C684.99 9.2959 686.344 9.55632 687.516 10.0771C688.701 10.598 689.625 11.3857 690.289 12.4404C690.966 13.4821 691.305 14.7907 691.305 16.3662V26.21C691.305 26.9131 691.363 27.6618 691.48 28.4561C691.611 29.2503 691.799 29.9339 692.047 30.5068V30.8193H688.277C688.095 30.4027 687.952 29.8493 687.848 29.1592C687.743 28.4561 687.691 27.805 687.691 27.2061ZM688.316 18.0068L688.355 20.5459H684.703C683.674 20.5459 682.757 20.6305 681.949 20.7998C681.142 20.9561 680.465 21.1969 679.918 21.5225C679.371 21.848 678.954 22.2581 678.668 22.7529C678.382 23.2347 678.238 23.8011 678.238 24.4521C678.238 25.1162 678.388 25.7217 678.688 26.2686C678.987 26.8154 679.436 27.2516 680.035 27.5771C680.647 27.8896 681.396 28.0459 682.281 28.0459C683.388 28.0459 684.365 27.8115 685.211 27.3428C686.057 26.874 686.728 26.3011 687.223 25.624C687.73 24.9469 688.004 24.2894 688.043 23.6514L689.586 25.3896C689.495 25.9365 689.247 26.542 688.844 27.2061C688.44 27.8701 687.9 28.5081 687.223 29.1201C686.559 29.7191 685.764 30.2204 684.84 30.624C683.928 31.0146 682.9 31.21 681.754 31.21C680.322 31.21 679.065 30.93 677.984 30.3701C676.917 29.8102 676.083 29.0615 675.484 28.124C674.898 27.1735 674.605 26.1123 674.605 24.9404C674.605 23.8076 674.827 22.8115 675.27 21.9521C675.712 21.0798 676.35 20.3571 677.184 19.7842C678.017 19.1982 679.02 18.7555 680.191 18.4561C681.363 18.1566 682.672 18.0068 684.117 18.0068H688.316ZM700.602 14.1982V30.8193H696.988V9.68652H700.406L700.602 14.1982ZM699.742 19.4521L698.238 19.3936C698.251 17.9482 698.466 16.6136 698.883 15.3896C699.299 14.1527 699.885 13.0785 700.641 12.167C701.396 11.2555 702.294 10.5524 703.336 10.0576C704.391 9.5498 705.556 9.2959 706.832 9.2959C707.874 9.2959 708.811 9.43913 709.645 9.72559C710.478 9.99902 711.188 10.4417 711.773 11.0537C712.372 11.6657 712.828 12.46 713.141 13.4365C713.453 14.4001 713.609 15.5785 713.609 16.9717V30.8193H709.977V16.9326C709.977 15.8258 709.814 14.9404 709.488 14.2764C709.163 13.5993 708.688 13.111 708.062 12.8115C707.438 12.499 706.669 12.3428 705.758 12.3428C704.859 12.3428 704.039 12.5316 703.297 12.9092C702.568 13.2868 701.936 13.8076 701.402 14.4717C700.882 15.1357 700.471 15.8975 700.172 16.7568C699.885 17.6032 699.742 18.5016 699.742 19.4521ZM732.418 26.7178V0.819336H736.051V30.8193H732.73L732.418 26.7178ZM718.199 20.4873V20.0771C718.199 18.4626 718.395 16.9977 718.785 15.6826C719.189 14.3545 719.755 13.2152 720.484 12.2646C721.227 11.3141 722.105 10.585 723.121 10.0771C724.15 9.55632 725.296 9.2959 726.559 9.2959C727.887 9.2959 729.046 9.53027 730.035 9.99902C731.038 10.4548 731.884 11.1253 732.574 12.0107C733.277 12.8831 733.831 13.9378 734.234 15.1748C734.638 16.4118 734.918 17.8115 735.074 19.374V21.1709C734.931 22.7204 734.651 24.1136 734.234 25.3506C733.831 26.5876 733.277 27.6423 732.574 28.5146C731.884 29.387 731.038 30.0576 730.035 30.5264C729.033 30.9821 727.861 31.21 726.52 31.21C725.283 31.21 724.15 30.943 723.121 30.4092C722.105 29.8753 721.227 29.1266 720.484 28.1631C719.755 27.1995 719.189 26.0667 718.785 24.7646C718.395 23.4495 718.199 22.0238 718.199 20.4873ZM721.832 20.0771V20.4873C721.832 21.542 721.936 22.5316 722.145 23.4561C722.366 24.3805 722.704 25.1943 723.16 25.8975C723.616 26.6006 724.195 27.154 724.898 27.5576C725.602 27.9482 726.441 28.1436 727.418 28.1436C728.616 28.1436 729.599 27.8896 730.367 27.3818C731.148 26.874 731.773 26.2035 732.242 25.3701C732.711 24.5368 733.076 23.6318 733.336 22.6553V17.9482C733.18 17.2321 732.952 16.542 732.652 15.8779C732.366 15.2008 731.988 14.6019 731.52 14.0811C731.064 13.5472 730.497 13.124 729.82 12.8115C729.156 12.499 728.368 12.3428 727.457 12.3428C726.467 12.3428 725.615 12.5511 724.898 12.9678C724.195 13.3714 723.616 13.9313 723.16 14.6475C722.704 15.3506 722.366 16.1709 722.145 17.1084C721.936 18.0329 721.832 19.0225 721.832 20.0771ZM755.211 0.819336V30.8193H751.598V0.819336H755.211ZM754.352 19.4521L752.848 19.3936C752.861 17.9482 753.076 16.6136 753.492 15.3896C753.909 14.1527 754.495 13.0785 755.25 12.167C756.005 11.2555 756.904 10.5524 757.945 10.0576C759 9.5498 760.165 9.2959 761.441 9.2959C762.483 9.2959 763.421 9.43913 764.254 9.72559C765.087 9.99902 765.797 10.4417 766.383 11.0537C766.982 11.6657 767.438 12.46 767.75 13.4365C768.062 14.4001 768.219 15.5785 768.219 16.9717V30.8193H764.586V16.9326C764.586 15.8258 764.423 14.9404 764.098 14.2764C763.772 13.5993 763.297 13.111 762.672 12.8115C762.047 12.499 761.279 12.3428 760.367 12.3428C759.469 12.3428 758.648 12.5316 757.906 12.9092C757.177 13.2868 756.546 13.8076 756.012 14.4717C755.491 15.1357 755.081 15.8975 754.781 16.7568C754.495 17.6032 754.352 18.5016 754.352 19.4521ZM782.398 31.21C780.927 31.21 779.592 30.9626 778.395 30.4678C777.21 29.96 776.188 29.2503 775.328 28.3389C774.482 27.4274 773.831 26.3467 773.375 25.0967C772.919 23.8467 772.691 22.4795 772.691 20.9951V20.1748C772.691 18.4561 772.945 16.9261 773.453 15.585C773.961 14.2308 774.651 13.085 775.523 12.1475C776.396 11.21 777.385 10.5003 778.492 10.0186C779.599 9.53678 780.745 9.2959 781.93 9.2959C783.44 9.2959 784.742 9.55632 785.836 10.0771C786.943 10.598 787.848 11.3271 788.551 12.2646C789.254 13.1891 789.775 14.2829 790.113 15.5459C790.452 16.7959 790.621 18.1631 790.621 19.6475V21.2686H774.84V18.3193H787.008V18.0459C786.956 17.1084 786.76 16.1969 786.422 15.3115C786.096 14.4261 785.576 13.6969 784.859 13.124C784.143 12.5511 783.167 12.2646 781.93 12.2646C781.109 12.2646 780.354 12.4404 779.664 12.792C778.974 13.1305 778.382 13.6383 777.887 14.3154C777.392 14.9925 777.008 15.8193 776.734 16.7959C776.461 17.7725 776.324 18.8988 776.324 20.1748V20.9951C776.324 21.9977 776.461 22.9417 776.734 23.8271C777.021 24.6995 777.431 25.4678 777.965 26.1318C778.512 26.7959 779.169 27.3167 779.938 27.6943C780.719 28.0719 781.604 28.2607 782.594 28.2607C783.87 28.2607 784.951 28.0003 785.836 27.4795C786.721 26.9587 787.496 26.262 788.16 25.3896L790.348 27.1279C789.892 27.818 789.312 28.4756 788.609 29.1006C787.906 29.7256 787.04 30.2334 786.012 30.624C784.996 31.0146 783.792 31.21 782.398 31.21ZM798.766 0.819336V30.8193H795.133V0.819336H798.766ZM808.18 13.749V38.9443H804.547V9.68652H807.867L808.18 13.749ZM822.418 20.0771V20.4873C822.418 22.0238 822.236 23.4495 821.871 24.7646C821.507 26.0667 820.973 27.1995 820.27 28.1631C819.579 29.1266 818.727 29.8753 817.711 30.4092C816.695 30.943 815.53 31.21 814.215 31.21C812.874 31.21 811.689 30.9886 810.66 30.5459C809.632 30.1032 808.759 29.4587 808.043 28.6123C807.327 27.766 806.754 26.7503 806.324 25.5654C805.908 24.3805 805.621 23.0459 805.465 21.5615V19.374C805.621 17.8115 805.914 16.4118 806.344 15.1748C806.773 13.9378 807.34 12.8831 808.043 12.0107C808.759 11.1253 809.625 10.4548 810.641 9.99902C811.656 9.53027 812.828 9.2959 814.156 9.2959C815.484 9.2959 816.663 9.55632 817.691 10.0771C818.72 10.585 819.586 11.3141 820.289 12.2646C820.992 13.2152 821.52 14.3545 821.871 15.6826C822.236 16.9977 822.418 18.4626 822.418 20.0771ZM818.785 20.4873V20.0771C818.785 19.0225 818.674 18.0329 818.453 17.1084C818.232 16.1709 817.887 15.3506 817.418 14.6475C816.962 13.9313 816.376 13.3714 815.66 12.9678C814.944 12.5511 814.091 12.3428 813.102 12.3428C812.19 12.3428 811.396 12.499 810.719 12.8115C810.055 13.124 809.488 13.5472 809.02 14.0811C808.551 14.6019 808.167 15.2008 807.867 15.8779C807.581 16.542 807.366 17.2321 807.223 17.9482V23.0068C807.483 23.9183 807.848 24.7777 808.316 25.585C808.785 26.3792 809.41 27.0238 810.191 27.5186C810.973 28.0003 811.956 28.2412 813.141 28.2412C814.117 28.2412 814.957 28.0394 815.66 27.6357C816.376 27.2191 816.962 26.6527 817.418 25.9365C817.887 25.2204 818.232 24.4001 818.453 23.4756C818.674 22.5381 818.785 21.542 818.785 20.4873ZM850.27 26.7178V0.819336H853.902V30.8193H850.582L850.27 26.7178ZM836.051 20.4873V20.0771C836.051 18.4626 836.246 16.9977 836.637 15.6826C837.04 14.3545 837.607 13.2152 838.336 12.2646C839.078 11.3141 839.957 10.585 840.973 10.0771C842.001 9.55632 843.147 9.2959 844.41 9.2959C845.738 9.2959 846.897 9.53027 847.887 9.99902C848.889 10.4548 849.736 11.1253 850.426 12.0107C851.129 12.8831 851.682 13.9378 852.086 15.1748C852.49 16.4118 852.77 17.8115 852.926 19.374V21.1709C852.783 22.7204 852.503 24.1136 852.086 25.3506C851.682 26.5876 851.129 27.6423 850.426 28.5146C849.736 29.387 848.889 30.0576 847.887 30.5264C846.884 30.9821 845.712 31.21 844.371 31.21C843.134 31.21 842.001 30.943 840.973 30.4092C839.957 29.8753 839.078 29.1266 838.336 28.1631C837.607 27.1995 837.04 26.0667 836.637 24.7646C836.246 23.4495 836.051 22.0238 836.051 20.4873ZM839.684 20.0771V20.4873C839.684 21.542 839.788 22.5316 839.996 23.4561C840.217 24.3805 840.556 25.1943 841.012 25.8975C841.467 26.6006 842.047 27.154 842.75 27.5576C843.453 27.9482 844.293 28.1436 845.27 28.1436C846.467 28.1436 847.451 27.8896 848.219 27.3818C849 26.874 849.625 26.2035 850.094 25.3701C850.562 24.5368 850.927 23.6318 851.188 22.6553V17.9482C851.031 17.2321 850.803 16.542 850.504 15.8779C850.217 15.2008 849.84 14.6019 849.371 14.0811C848.915 13.5472 848.349 13.124 847.672 12.8115C847.008 12.499 846.22 12.3428 845.309 12.3428C844.319 12.3428 843.466 12.5511 842.75 12.9678C842.047 13.3714 841.467 13.9313 841.012 14.6475C840.556 15.3506 840.217 16.1709 839.996 17.1084C839.788 18.0329 839.684 19.0225 839.684 20.0771ZM863.141 13.0068V30.8193H859.527V9.68652H863.043L863.141 13.0068ZM869.742 9.56934L869.723 12.9287C869.423 12.8636 869.137 12.8245 868.863 12.8115C868.603 12.7855 868.303 12.7725 867.965 12.7725C867.132 12.7725 866.396 12.9027 865.758 13.1631C865.12 13.4235 864.579 13.7881 864.137 14.2568C863.694 14.7256 863.342 15.2855 863.082 15.9365C862.835 16.5745 862.672 17.2777 862.594 18.0459L861.578 18.6318C861.578 17.3558 861.702 16.1579 861.949 15.0381C862.21 13.9183 862.607 12.9287 863.141 12.0693C863.674 11.1969 864.352 10.5199 865.172 10.0381C866.005 9.54329 866.995 9.2959 868.141 9.2959C868.401 9.2959 868.701 9.32845 869.039 9.39355C869.378 9.44564 869.612 9.50423 869.742 9.56934ZM877.008 9.68652V30.8193H873.375V9.68652H877.008ZM873.102 4.08105C873.102 3.49512 873.277 3.00033 873.629 2.59668C873.993 2.19303 874.527 1.99121 875.23 1.99121C875.921 1.99121 876.448 2.19303 876.812 2.59668C877.19 3.00033 877.379 3.49512 877.379 4.08105C877.379 4.64095 877.19 5.12272 876.812 5.52637C876.448 5.91699 875.921 6.1123 875.23 6.1123C874.527 6.1123 873.993 5.91699 873.629 5.52637C873.277 5.12272 873.102 4.64095 873.102 4.08105ZM889.234 27.5576L895.016 9.68652H898.707L891.109 30.8193H888.688L889.234 27.5576ZM884.41 9.68652L890.367 27.6553L890.777 30.8193H888.355L880.699 9.68652H884.41ZM910.68 31.21C909.208 31.21 907.874 30.9626 906.676 30.4678C905.491 29.96 904.469 29.2503 903.609 28.3389C902.763 27.4274 902.112 26.3467 901.656 25.0967C901.201 23.8467 900.973 22.4795 900.973 20.9951V20.1748C900.973 18.4561 901.227 16.9261 901.734 15.585C902.242 14.2308 902.932 13.085 903.805 12.1475C904.677 11.21 905.667 10.5003 906.773 10.0186C907.88 9.53678 909.026 9.2959 910.211 9.2959C911.721 9.2959 913.023 9.55632 914.117 10.0771C915.224 10.598 916.129 11.3271 916.832 12.2646C917.535 13.1891 918.056 14.2829 918.395 15.5459C918.733 16.7959 918.902 18.1631 918.902 19.6475V21.2686H903.121V18.3193H915.289V18.0459C915.237 17.1084 915.042 16.1969 914.703 15.3115C914.378 14.4261 913.857 13.6969 913.141 13.124C912.424 12.5511 911.448 12.2646 910.211 12.2646C909.391 12.2646 908.635 12.4404 907.945 12.792C907.255 13.1305 906.663 13.6383 906.168 14.3154C905.673 14.9925 905.289 15.8193 905.016 16.7959C904.742 17.7725 904.605 18.8988 904.605 20.1748V20.9951C904.605 21.9977 904.742 22.9417 905.016 23.8271C905.302 24.6995 905.712 25.4678 906.246 26.1318C906.793 26.7959 907.451 27.3167 908.219 27.6943C909 28.0719 909.885 28.2607 910.875 28.2607C912.151 28.2607 913.232 28.0003 914.117 27.4795C915.003 26.9587 915.777 26.262 916.441 25.3896L918.629 27.1279C918.173 27.818 917.594 28.4756 916.891 29.1006C916.188 29.7256 915.322 30.2334 914.293 30.624C913.277 31.0146 912.073 31.21 910.68 31.21ZM938.98 28.6318L944.859 9.68652H948.727L940.25 34.0811C940.055 34.6019 939.794 35.1618 939.469 35.7607C939.156 36.3727 938.753 36.9521 938.258 37.499C937.763 38.0459 937.164 38.4886 936.461 38.8271C935.771 39.1787 934.944 39.3545 933.98 39.3545C933.694 39.3545 933.329 39.3154 932.887 39.2373C932.444 39.1592 932.132 39.0941 931.949 39.042L931.93 36.1123C932.034 36.1253 932.197 36.1383 932.418 36.1514C932.652 36.1774 932.815 36.1904 932.906 36.1904C933.727 36.1904 934.423 36.0798 934.996 35.8584C935.569 35.6501 936.051 35.292 936.441 34.7842C936.845 34.2894 937.19 33.6058 937.477 32.7334L938.98 28.6318ZM934.664 9.68652L940.152 26.0928L941.09 29.9014L938.492 31.2295L930.719 9.68652H934.664ZM950.719 20.4873V20.0381C950.719 18.5146 950.94 17.1019 951.383 15.7998C951.826 14.4847 952.464 13.3454 953.297 12.3818C954.13 11.4053 955.139 10.6501 956.324 10.1162C957.509 9.56934 958.837 9.2959 960.309 9.2959C961.793 9.2959 963.128 9.56934 964.312 10.1162C965.51 10.6501 966.526 11.4053 967.359 12.3818C968.206 13.3454 968.85 14.4847 969.293 15.7998C969.736 17.1019 969.957 18.5146 969.957 20.0381V20.4873C969.957 22.0107 969.736 23.4235 969.293 24.7256C968.85 26.0277 968.206 27.167 967.359 28.1436C966.526 29.1071 965.517 29.8623 964.332 30.4092C963.16 30.943 961.832 31.21 960.348 31.21C958.863 31.21 957.529 30.943 956.344 30.4092C955.159 29.8623 954.143 29.1071 953.297 28.1436C952.464 27.167 951.826 26.0277 951.383 24.7256C950.94 23.4235 950.719 22.0107 950.719 20.4873ZM954.332 20.0381V20.4873C954.332 21.542 954.456 22.5381 954.703 23.4756C954.951 24.4001 955.322 25.2204 955.816 25.9365C956.324 26.6527 956.956 27.2191 957.711 27.6357C958.466 28.0394 959.345 28.2412 960.348 28.2412C961.337 28.2412 962.203 28.0394 962.945 27.6357C963.701 27.2191 964.326 26.6527 964.82 25.9365C965.315 25.2204 965.686 24.4001 965.934 23.4756C966.194 22.5381 966.324 21.542 966.324 20.4873V20.0381C966.324 18.9964 966.194 18.0133 965.934 17.0889C965.686 16.1514 965.309 15.3245 964.801 14.6084C964.306 13.8792 963.681 13.3063 962.926 12.8896C962.184 12.473 961.311 12.2646 960.309 12.2646C959.319 12.2646 958.447 12.473 957.691 12.8896C956.949 13.3063 956.324 13.8792 955.816 14.6084C955.322 15.3245 954.951 16.1514 954.703 17.0889C954.456 18.0133 954.332 18.9964 954.332 20.0381ZM987.418 25.9365V9.68652H991.051V30.8193H987.594L987.418 25.9365ZM988.102 21.4834L989.605 21.4443C989.605 22.8506 989.456 24.1527 989.156 25.3506C988.87 26.5355 988.401 27.5641 987.75 28.4365C987.099 29.3089 986.246 29.9925 985.191 30.4873C984.137 30.9691 982.854 31.21 981.344 31.21C980.315 31.21 979.371 31.0602 978.512 30.7607C977.665 30.4613 976.936 29.999 976.324 29.374C975.712 28.749 975.237 27.9352 974.898 26.9326C974.573 25.93 974.41 24.7256 974.41 23.3193V9.68652H978.023V23.3584C978.023 24.3089 978.128 25.0967 978.336 25.7217C978.557 26.3337 978.85 26.8219 979.215 27.1865C979.592 27.5381 980.009 27.7855 980.465 27.9287C980.934 28.0719 981.415 28.1436 981.91 28.1436C983.447 28.1436 984.664 27.8506 985.562 27.2646C986.461 26.6657 987.105 25.8649 987.496 24.8623C987.9 23.8467 988.102 22.7204 988.102 21.4834ZM1000.17 13.0068V30.8193H996.559V9.68652H1000.07L1000.17 13.0068ZM1006.77 9.56934L1006.75 12.9287C1006.45 12.8636 1006.17 12.8245 1005.89 12.8115C1005.63 12.7855 1005.33 12.7725 1005 12.7725C1004.16 12.7725 1003.43 12.9027 1002.79 13.1631C1002.15 13.4235 1001.61 13.7881 1001.17 14.2568C1000.73 14.7256 1000.37 15.2855 1000.11 15.9365C999.866 16.5745 999.703 17.2777 999.625 18.0459L998.609 18.6318C998.609 17.3558 998.733 16.1579 998.98 15.0381C999.241 13.9183 999.638 12.9287 1000.17 12.0693C1000.71 11.1969 1001.38 10.5199 1002.2 10.0381C1003.04 9.54329 1004.03 9.2959 1005.17 9.2959C1005.43 9.2959 1005.73 9.32845 1006.07 9.39355C1006.41 9.44564 1006.64 9.50423 1006.77 9.56934ZM1020.02 0.819336H1023.65V26.7178L1023.34 30.8193H1020.02V0.819336ZM1037.93 20.0771V20.4873C1037.93 22.0238 1037.74 23.4495 1037.38 24.7646C1037.01 26.0667 1036.48 27.1995 1035.78 28.1631C1035.07 29.1266 1034.21 29.8753 1033.2 30.4092C1032.18 30.943 1031.02 31.21 1029.7 31.21C1028.36 31.21 1027.18 30.9821 1026.17 30.5264C1025.17 30.0576 1024.32 29.387 1023.63 28.5146C1022.94 27.6423 1022.39 26.5876 1021.97 25.3506C1021.57 24.1136 1021.29 22.7204 1021.13 21.1709V19.374C1021.29 17.8115 1021.57 16.4118 1021.97 15.1748C1022.39 13.9378 1022.94 12.8831 1023.63 12.0107C1024.32 11.1253 1025.17 10.4548 1026.17 9.99902C1027.17 9.53027 1028.34 9.2959 1029.66 9.2959C1030.99 9.2959 1032.17 9.55632 1033.2 10.0771C1034.23 10.585 1035.09 11.3141 1035.78 12.2646C1036.48 13.2152 1037.01 14.3545 1037.38 15.6826C1037.74 16.9977 1037.93 18.4626 1037.93 20.0771ZM1034.29 20.4873V20.0771C1034.29 19.0225 1034.2 18.0329 1034 17.1084C1033.8 16.1709 1033.49 15.3506 1033.06 14.6475C1032.63 13.9313 1032.07 13.3714 1031.36 12.9678C1030.66 12.5511 1029.79 12.3428 1028.77 12.3428C1027.85 12.3428 1027.06 12.499 1026.38 12.8115C1025.72 13.124 1025.15 13.5472 1024.68 14.0811C1024.21 14.6019 1023.83 15.2008 1023.53 15.8779C1023.24 16.542 1023.03 17.2321 1022.89 17.9482V22.6553C1023.1 23.5667 1023.43 24.4456 1023.9 25.292C1024.38 26.1253 1025.02 26.8089 1025.82 27.3428C1026.62 27.8766 1027.62 28.1436 1028.8 28.1436C1029.78 28.1436 1030.61 27.9482 1031.3 27.5576C1032.01 27.154 1032.57 26.6006 1033 25.8975C1033.45 25.1943 1033.77 24.3805 1033.98 23.4561C1034.19 22.5316 1034.29 21.542 1034.29 20.4873ZM1055.43 25.9365V9.68652H1059.06V30.8193H1055.6L1055.43 25.9365ZM1056.11 21.4834L1057.61 21.4443C1057.61 22.8506 1057.46 24.1527 1057.16 25.3506C1056.88 26.5355 1056.41 27.5641 1055.76 28.4365C1055.11 29.3089 1054.25 29.9925 1053.2 30.4873C1052.14 30.9691 1050.86 31.21 1049.35 31.21C1048.32 31.21 1047.38 31.0602 1046.52 30.7607C1045.67 30.4613 1044.94 29.999 1044.33 29.374C1043.72 28.749 1043.24 27.9352 1042.91 26.9326C1042.58 25.93 1042.42 24.7256 1042.42 23.3193V9.68652H1046.03V23.3584C1046.03 24.3089 1046.14 25.0967 1046.34 25.7217C1046.57 26.3337 1046.86 26.8219 1047.22 27.1865C1047.6 27.5381 1048.02 27.7855 1048.47 27.9287C1048.94 28.0719 1049.42 28.1436 1049.92 28.1436C1051.45 28.1436 1052.67 27.8506 1053.57 27.2646C1054.47 26.6657 1055.11 25.8649 1055.5 24.8623C1055.91 23.8467 1056.11 22.7204 1056.11 21.4834ZM1076.87 25.2139C1076.87 24.693 1076.75 24.2113 1076.52 23.7686C1076.3 23.3128 1075.84 22.9027 1075.13 22.5381C1074.44 22.1605 1073.4 21.835 1072.01 21.5615C1070.84 21.3141 1069.77 21.0212 1068.82 20.6826C1067.89 20.3441 1067.09 19.9339 1066.42 19.4521C1065.77 18.9704 1065.27 18.404 1064.92 17.7529C1064.57 17.1019 1064.39 16.3402 1064.39 15.4678C1064.39 14.6344 1064.57 13.8467 1064.94 13.1045C1065.32 12.3623 1065.84 11.7048 1066.52 11.1318C1067.21 10.5589 1068.04 10.1097 1069 9.78418C1069.96 9.45866 1071.04 9.2959 1072.22 9.2959C1073.92 9.2959 1075.36 9.59538 1076.56 10.1943C1077.76 10.7933 1078.67 11.5941 1079.31 12.5967C1079.95 13.5863 1080.27 14.6865 1080.27 15.8975H1076.66C1076.66 15.3115 1076.48 14.7451 1076.13 14.1982C1075.79 13.6383 1075.29 13.1761 1074.62 12.8115C1073.97 12.4469 1073.17 12.2646 1072.22 12.2646C1071.22 12.2646 1070.41 12.4209 1069.78 12.7334C1069.17 13.0329 1068.72 13.417 1068.43 13.8857C1068.16 14.3545 1068.02 14.8493 1068.02 15.3701C1068.02 15.7607 1068.09 16.1123 1068.22 16.4248C1068.36 16.7243 1068.61 17.0042 1068.96 17.2646C1069.31 17.512 1069.81 17.7464 1070.45 17.9678C1071.08 18.1891 1071.9 18.4105 1072.89 18.6318C1074.62 19.0225 1076.04 19.4912 1077.16 20.0381C1078.28 20.585 1079.12 21.2555 1079.66 22.0498C1080.21 22.8441 1080.48 23.8076 1080.48 24.9404C1080.48 25.8649 1080.29 26.7113 1079.9 27.4795C1079.52 28.2477 1078.97 28.9118 1078.24 29.4717C1077.52 30.0186 1076.66 30.4482 1075.66 30.7607C1074.67 31.0602 1073.56 31.21 1072.32 31.21C1070.46 31.21 1068.88 30.8779 1067.59 30.2139C1066.3 29.5498 1065.33 28.6904 1064.66 27.6357C1064 26.5811 1063.67 25.4678 1063.67 24.2959H1067.3C1067.35 25.2855 1067.64 26.0732 1068.16 26.6592C1068.68 27.2321 1069.32 27.6423 1070.07 27.8896C1070.83 28.124 1071.58 28.2412 1072.32 28.2412C1073.31 28.2412 1074.14 28.111 1074.8 27.8506C1075.48 27.5902 1075.99 27.2321 1076.34 26.7764C1076.7 26.3206 1076.87 25.7998 1076.87 25.2139ZM1089.16 9.68652V30.8193H1085.52V9.68652H1089.16ZM1085.25 4.08105C1085.25 3.49512 1085.43 3.00033 1085.78 2.59668C1086.14 2.19303 1086.68 1.99121 1087.38 1.99121C1088.07 1.99121 1088.6 2.19303 1088.96 2.59668C1089.34 3.00033 1089.53 3.49512 1089.53 4.08105C1089.53 4.64095 1089.34 5.12272 1088.96 5.52637C1088.6 5.91699 1088.07 6.1123 1087.38 6.1123C1086.68 6.1123 1086.14 5.91699 1085.78 5.52637C1085.43 5.12272 1085.25 4.64095 1085.25 4.08105ZM1098.57 14.1982V30.8193H1094.96V9.68652H1098.38L1098.57 14.1982ZM1097.71 19.4521L1096.21 19.3936C1096.22 17.9482 1096.43 16.6136 1096.85 15.3896C1097.27 14.1527 1097.85 13.0785 1098.61 12.167C1099.36 11.2555 1100.26 10.5524 1101.3 10.0576C1102.36 9.5498 1103.52 9.2959 1104.8 9.2959C1105.84 9.2959 1106.78 9.43913 1107.61 9.72559C1108.45 9.99902 1109.16 10.4417 1109.74 11.0537C1110.34 11.6657 1110.8 12.46 1111.11 13.4365C1111.42 14.4001 1111.58 15.5785 1111.58 16.9717V30.8193H1107.95V16.9326C1107.95 15.8258 1107.78 14.9404 1107.46 14.2764C1107.13 13.5993 1106.66 13.111 1106.03 12.8115C1105.41 12.499 1104.64 12.3428 1103.73 12.3428C1102.83 12.3428 1102.01 12.5316 1101.27 12.9092C1100.54 13.2868 1099.9 13.8076 1099.37 14.4717C1098.85 15.1357 1098.44 15.8975 1098.14 16.7568C1097.85 17.6032 1097.71 18.5016 1097.71 19.4521ZM1125.84 31.21C1124.36 31.21 1123.03 30.9626 1121.83 30.4678C1120.65 29.96 1119.62 29.2503 1118.77 28.3389C1117.92 27.4274 1117.27 26.3467 1116.81 25.0967C1116.36 23.8467 1116.13 22.4795 1116.13 20.9951V20.1748C1116.13 18.4561 1116.38 16.9261 1116.89 15.585C1117.4 14.2308 1118.09 13.085 1118.96 12.1475C1119.83 11.21 1120.82 10.5003 1121.93 10.0186C1123.04 9.53678 1124.18 9.2959 1125.37 9.2959C1126.88 9.2959 1128.18 9.55632 1129.27 10.0771C1130.38 10.598 1131.29 11.3271 1131.99 12.2646C1132.69 13.1891 1133.21 14.2829 1133.55 15.5459C1133.89 16.7959 1134.06 18.1631 1134.06 19.6475V21.2686H1118.28V18.3193H1130.45V18.0459C1130.39 17.1084 1130.2 16.1969 1129.86 15.3115C1129.53 14.4261 1129.01 13.6969 1128.3 13.124C1127.58 12.5511 1126.6 12.2646 1125.37 12.2646C1124.55 12.2646 1123.79 12.4404 1123.1 12.792C1122.41 13.1305 1121.82 13.6383 1121.32 14.3154C1120.83 14.9925 1120.45 15.8193 1120.17 16.7959C1119.9 17.7725 1119.76 18.8988 1119.76 20.1748V20.9951C1119.76 21.9977 1119.9 22.9417 1120.17 23.8271C1120.46 24.6995 1120.87 25.4678 1121.4 26.1318C1121.95 26.7959 1122.61 27.3167 1123.38 27.6943C1124.16 28.0719 1125.04 28.2607 1126.03 28.2607C1127.31 28.2607 1128.39 28.0003 1129.27 27.4795C1130.16 26.9587 1130.93 26.262 1131.6 25.3896L1133.79 27.1279C1133.33 27.818 1132.75 28.4756 1132.05 29.1006C1131.34 29.7256 1130.48 30.2334 1129.45 30.624C1128.43 31.0146 1127.23 31.21 1125.84 31.21ZM1150.58 25.2139C1150.58 24.693 1150.46 24.2113 1150.23 23.7686C1150.01 23.3128 1149.55 22.9027 1148.84 22.5381C1148.15 22.1605 1147.11 21.835 1145.72 21.5615C1144.55 21.3141 1143.49 21.0212 1142.54 20.6826C1141.6 20.3441 1140.8 19.9339 1140.13 19.4521C1139.48 18.9704 1138.98 18.404 1138.63 17.7529C1138.28 17.1019 1138.1 16.3402 1138.1 15.4678C1138.1 14.6344 1138.28 13.8467 1138.65 13.1045C1139.03 12.3623 1139.55 11.7048 1140.23 11.1318C1140.92 10.5589 1141.75 10.1097 1142.71 9.78418C1143.67 9.45866 1144.75 9.2959 1145.93 9.2959C1147.63 9.2959 1149.07 9.59538 1150.27 10.1943C1151.47 10.7933 1152.39 11.5941 1153.02 12.5967C1153.66 13.5863 1153.98 14.6865 1153.98 15.8975H1150.37C1150.37 15.3115 1150.19 14.7451 1149.84 14.1982C1149.5 13.6383 1149 13.1761 1148.34 12.8115C1147.68 12.4469 1146.88 12.2646 1145.93 12.2646C1144.93 12.2646 1144.12 12.4209 1143.49 12.7334C1142.88 13.0329 1142.43 13.417 1142.14 13.8857C1141.87 14.3545 1141.73 14.8493 1141.73 15.3701C1141.73 15.7607 1141.8 16.1123 1141.93 16.4248C1142.07 16.7243 1142.32 17.0042 1142.67 17.2646C1143.02 17.512 1143.52 17.7464 1144.16 17.9678C1144.79 18.1891 1145.61 18.4105 1146.6 18.6318C1148.33 19.0225 1149.76 19.4912 1150.88 20.0381C1151.99 20.585 1152.83 21.2555 1153.38 22.0498C1153.92 22.8441 1154.2 23.8076 1154.2 24.9404C1154.2 25.8649 1154 26.7113 1153.61 27.4795C1153.23 28.2477 1152.68 28.9118 1151.95 29.4717C1151.23 30.0186 1150.37 30.4482 1149.37 30.7607C1148.38 31.0602 1147.27 31.21 1146.03 31.21C1144.17 31.21 1142.59 30.8779 1141.3 30.2139C1140.02 29.5498 1139.04 28.6904 1138.38 27.6357C1137.71 26.5811 1137.38 25.4678 1137.38 24.2959H1141.01C1141.06 25.2855 1141.35 26.0732 1141.87 26.6592C1142.39 27.2321 1143.03 27.6423 1143.79 27.8896C1144.54 28.124 1145.29 28.2412 1146.03 28.2412C1147.02 28.2412 1147.85 28.111 1148.51 27.8506C1149.19 27.5902 1149.7 27.2321 1150.05 26.7764C1150.41 26.3206 1150.58 25.7998 1150.58 25.2139ZM1171.25 25.2139C1171.25 24.693 1171.13 24.2113 1170.89 23.7686C1170.67 23.3128 1170.21 22.9027 1169.51 22.5381C1168.82 22.1605 1167.78 21.835 1166.38 21.5615C1165.21 21.3141 1164.15 21.0212 1163.2 20.6826C1162.26 20.3441 1161.46 19.9339 1160.8 19.4521C1160.15 18.9704 1159.64 18.404 1159.29 17.7529C1158.94 17.1019 1158.77 16.3402 1158.77 15.4678C1158.77 14.6344 1158.95 13.8467 1159.31 13.1045C1159.69 12.3623 1160.22 11.7048 1160.89 11.1318C1161.58 10.5589 1162.41 10.1097 1163.38 9.78418C1164.34 9.45866 1165.41 9.2959 1166.6 9.2959C1168.29 9.2959 1169.74 9.59538 1170.93 10.1943C1172.13 10.7933 1173.05 11.5941 1173.69 12.5967C1174.33 13.5863 1174.64 14.6865 1174.64 15.8975H1171.03C1171.03 15.3115 1170.86 14.7451 1170.5 14.1982C1170.17 13.6383 1169.66 13.1761 1169 12.8115C1168.35 12.4469 1167.55 12.2646 1166.6 12.2646C1165.6 12.2646 1164.78 12.4209 1164.16 12.7334C1163.54 13.0329 1163.1 13.417 1162.81 13.8857C1162.54 14.3545 1162.4 14.8493 1162.4 15.3701C1162.4 15.7607 1162.46 16.1123 1162.59 16.4248C1162.74 16.7243 1162.98 17.0042 1163.34 17.2646C1163.69 17.512 1164.18 17.7464 1164.82 17.9678C1165.46 18.1891 1166.27 18.4105 1167.26 18.6318C1168.99 19.0225 1170.42 19.4912 1171.54 20.0381C1172.66 20.585 1173.49 21.2555 1174.04 22.0498C1174.59 22.8441 1174.86 23.8076 1174.86 24.9404C1174.86 25.8649 1174.66 26.7113 1174.27 27.4795C1173.9 28.2477 1173.34 28.9118 1172.61 29.4717C1171.9 30.0186 1171.04 30.4482 1170.04 30.7607C1169.05 31.0602 1167.93 31.21 1166.7 31.21C1164.83 31.21 1163.26 30.8779 1161.97 30.2139C1160.68 29.5498 1159.7 28.6904 1159.04 27.6357C1158.38 26.5811 1158.04 25.4678 1158.04 24.2959H1161.68C1161.73 25.2855 1162.01 26.0732 1162.54 26.6592C1163.06 27.2321 1163.69 27.6423 1164.45 27.8896C1165.2 28.124 1165.95 28.2412 1166.7 28.2412C1167.68 28.2412 1168.51 28.111 1169.18 27.8506C1169.85 27.5902 1170.37 27.2321 1170.72 26.7764C1171.07 26.3206 1171.25 25.7998 1171.25 25.2139ZM7.14453 98.8193H3.53125V75.46C3.53125 73.9365 3.80469 72.654 4.35156 71.6123C4.91146 70.5576 5.71224 69.7633 6.75391 69.2295C7.79557 68.6826 9.03255 68.4092 10.4648 68.4092C10.8815 68.4092 11.2982 68.4352 11.7148 68.4873C12.1445 68.5394 12.5612 68.6175 12.9648 68.7217L12.7695 71.6709C12.4961 71.6058 12.1836 71.5602 11.832 71.5342C11.4935 71.5081 11.1549 71.4951 10.8164 71.4951C10.0482 71.4951 9.38411 71.6514 8.82422 71.9639C8.27734 72.2633 7.86068 72.7061 7.57422 73.292C7.28776 73.8779 7.14453 74.6006 7.14453 75.46V98.8193ZM11.6367 77.6865V80.46H0.191406V77.6865H11.6367ZM14.7031 88.4873V88.0381C14.7031 86.5146 14.9245 85.1019 15.3672 83.7998C15.8099 82.4847 16.4479 81.3454 17.2812 80.3818C18.1146 79.4053 19.1237 78.6501 20.3086 78.1162C21.4935 77.5693 22.8216 77.2959 24.293 77.2959C25.7773 77.2959 27.112 77.5693 28.2969 78.1162C29.4948 78.6501 30.5104 79.4053 31.3438 80.3818C32.1901 81.3454 32.8346 82.4847 33.2773 83.7998C33.7201 85.1019 33.9414 86.5146 33.9414 88.0381V88.4873C33.9414 90.0107 33.7201 91.4235 33.2773 92.7256C32.8346 94.0277 32.1901 95.167 31.3438 96.1436C30.5104 97.1071 29.5013 97.8623 28.3164 98.4092C27.1445 98.943 25.8164 99.21 24.332 99.21C22.8477 99.21 21.513 98.943 20.3281 98.4092C19.1432 97.8623 18.1276 97.1071 17.2812 96.1436C16.4479 95.167 15.8099 94.0277 15.3672 92.7256C14.9245 91.4235 14.7031 90.0107 14.7031 88.4873ZM18.3164 88.0381V88.4873C18.3164 89.542 18.4401 90.5381 18.6875 91.4756C18.9349 92.4001 19.306 93.2204 19.8008 93.9365C20.3086 94.6527 20.9401 95.2191 21.6953 95.6357C22.4505 96.0394 23.3294 96.2412 24.332 96.2412C25.3216 96.2412 26.1875 96.0394 26.9297 95.6357C27.6849 95.2191 28.3099 94.6527 28.8047 93.9365C29.2995 93.2204 29.6706 92.4001 29.918 91.4756C30.1784 90.5381 30.3086 89.542 30.3086 88.4873V88.0381C30.3086 86.9964 30.1784 86.0133 29.918 85.0889C29.6706 84.1514 29.293 83.3245 28.7852 82.6084C28.2904 81.8792 27.6654 81.3063 26.9102 80.8896C26.168 80.473 25.2956 80.2646 24.293 80.2646C23.3034 80.2646 22.431 80.473 21.6758 80.8896C20.9336 81.3063 20.3086 81.8792 19.8008 82.6084C19.306 83.3245 18.9349 84.1514 18.6875 85.0889C18.4401 86.0133 18.3164 86.9964 18.3164 88.0381ZM42.0859 81.0068V98.8193H38.4727V77.6865H41.9883L42.0859 81.0068ZM48.6875 77.5693L48.668 80.9287C48.3685 80.8636 48.082 80.8245 47.8086 80.8115C47.5482 80.7855 47.2487 80.7725 46.9102 80.7725C46.0768 80.7725 45.3411 80.9027 44.7031 81.1631C44.0651 81.4235 43.5247 81.7881 43.082 82.2568C42.6393 82.7256 42.2878 83.2855 42.0273 83.9365C41.7799 84.5745 41.6172 85.2777 41.5391 86.0459L40.5234 86.6318C40.5234 85.3558 40.6471 84.1579 40.8945 83.0381C41.1549 81.9183 41.5521 80.9287 42.0859 80.0693C42.6198 79.1969 43.2969 78.5199 44.1172 78.0381C44.9505 77.5433 45.9401 77.2959 47.0859 77.2959C47.3464 77.2959 47.6458 77.3285 47.9844 77.3936C48.3229 77.4456 48.5573 77.5042 48.6875 77.5693ZM57.7305 95.0693L63.1602 77.6865H65.543L65.0742 81.1436L59.5469 98.8193H57.2227L57.7305 95.0693ZM54.0781 77.6865L58.707 95.2646L59.0391 98.8193H56.5977L50.4648 77.6865H54.0781ZM70.7383 95.1279L75.1523 77.6865H78.7461L72.6133 98.8193H70.1914L70.7383 95.1279ZM66.0703 77.6865L71.3828 94.7764L71.9883 98.8193H69.6836L64 81.1045L63.5312 77.6865H66.0703ZM94.918 95.2061V84.3271C94.918 83.4938 94.7487 82.7712 94.4102 82.1592C94.0846 81.5342 93.5898 81.0524 92.9258 80.7139C92.2617 80.3753 91.4414 80.2061 90.4648 80.2061C89.5534 80.2061 88.7526 80.3623 88.0625 80.6748C87.3854 80.9873 86.8516 81.3975 86.4609 81.9053C86.0833 82.4131 85.8945 82.96 85.8945 83.5459H82.2812C82.2812 82.7907 82.4766 82.042 82.8672 81.2998C83.2578 80.5576 83.8177 79.887 84.5469 79.2881C85.2891 78.6761 86.1745 78.1943 87.2031 77.8428C88.2448 77.4782 89.4036 77.2959 90.6797 77.2959C92.2161 77.2959 93.5703 77.5563 94.7422 78.0771C95.9271 78.598 96.8516 79.3857 97.5156 80.4404C98.1927 81.4821 98.5312 82.7907 98.5312 84.3662V94.21C98.5312 94.9131 98.5898 95.6618 98.707 96.4561C98.8372 97.2503 99.026 97.9339 99.2734 98.5068V98.8193H95.5039C95.3216 98.4027 95.1784 97.8493 95.0742 97.1592C94.9701 96.4561 94.918 95.805 94.918 95.2061ZM95.543 86.0068L95.582 88.5459H91.9297C90.901 88.5459 89.9831 88.6305 89.1758 88.7998C88.3685 88.9561 87.6914 89.1969 87.1445 89.5225C86.5977 89.848 86.181 90.2581 85.8945 90.7529C85.6081 91.2347 85.4648 91.8011 85.4648 92.4521C85.4648 93.1162 85.6146 93.7217 85.9141 94.2686C86.2135 94.8154 86.6628 95.2516 87.2617 95.5771C87.8737 95.8896 88.6224 96.0459 89.5078 96.0459C90.6146 96.0459 91.5911 95.8115 92.4375 95.3428C93.2839 94.874 93.9544 94.3011 94.4492 93.624C94.957 92.9469 95.2305 92.2894 95.2695 91.6514L96.8125 93.3896C96.7214 93.9365 96.474 94.542 96.0703 95.2061C95.6667 95.8701 95.1263 96.5081 94.4492 97.1201C93.7852 97.7191 92.9909 98.2204 92.0664 98.624C91.1549 99.0146 90.1263 99.21 88.9805 99.21C87.5482 99.21 86.2917 98.93 85.2109 98.3701C84.1432 97.8102 83.3099 97.0615 82.7109 96.124C82.125 95.1735 81.832 94.1123 81.832 92.9404C81.832 91.8076 82.0534 90.8115 82.4961 89.9521C82.9388 89.0798 83.5768 88.3571 84.4102 87.7842C85.2435 87.1982 86.2461 86.7555 87.418 86.4561C88.5898 86.1566 89.8984 86.0068 91.3438 86.0068H95.543ZM107.828 81.0068V98.8193H104.215V77.6865H107.73L107.828 81.0068ZM114.43 77.5693L114.41 80.9287C114.111 80.8636 113.824 80.8245 113.551 80.8115C113.29 80.7855 112.991 80.7725 112.652 80.7725C111.819 80.7725 111.083 80.9027 110.445 81.1631C109.807 81.4235 109.267 81.7881 108.824 82.2568C108.382 82.7256 108.03 83.2855 107.77 83.9365C107.522 84.5745 107.359 85.2777 107.281 86.0459L106.266 86.6318C106.266 85.3558 106.389 84.1579 106.637 83.0381C106.897 81.9183 107.294 80.9287 107.828 80.0693C108.362 79.1969 109.039 78.5199 109.859 78.0381C110.693 77.5433 111.682 77.2959 112.828 77.2959C113.089 77.2959 113.388 77.3285 113.727 77.3936C114.065 77.4456 114.299 77.5042 114.43 77.5693ZM130.699 94.7178V68.8193H134.332V98.8193H131.012L130.699 94.7178ZM116.48 88.4873V88.0771C116.48 86.4626 116.676 84.9977 117.066 83.6826C117.47 82.3545 118.036 81.2152 118.766 80.2646C119.508 79.3141 120.387 78.585 121.402 78.0771C122.431 77.5563 123.577 77.2959 124.84 77.2959C126.168 77.2959 127.327 77.5303 128.316 77.999C129.319 78.4548 130.165 79.1253 130.855 80.0107C131.559 80.8831 132.112 81.9378 132.516 83.1748C132.919 84.4118 133.199 85.8115 133.355 87.374V89.1709C133.212 90.7204 132.932 92.1136 132.516 93.3506C132.112 94.5876 131.559 95.6423 130.855 96.5146C130.165 97.387 129.319 98.0576 128.316 98.5264C127.314 98.9821 126.142 99.21 124.801 99.21C123.564 99.21 122.431 98.943 121.402 98.4092C120.387 97.8753 119.508 97.1266 118.766 96.1631C118.036 95.1995 117.47 94.0667 117.066 92.7646C116.676 91.4495 116.48 90.0238 116.48 88.4873ZM120.113 88.0771V88.4873C120.113 89.542 120.217 90.5316 120.426 91.4561C120.647 92.3805 120.986 93.1943 121.441 93.8975C121.897 94.6006 122.477 95.154 123.18 95.5576C123.883 95.9482 124.723 96.1436 125.699 96.1436C126.897 96.1436 127.88 95.8896 128.648 95.3818C129.43 94.874 130.055 94.2035 130.523 93.3701C130.992 92.5368 131.357 91.6318 131.617 90.6553V85.9482C131.461 85.2321 131.233 84.542 130.934 83.8779C130.647 83.2008 130.27 82.6019 129.801 82.0811C129.345 81.5472 128.779 81.124 128.102 80.8115C127.438 80.499 126.65 80.3428 125.738 80.3428C124.749 80.3428 123.896 80.5511 123.18 80.9678C122.477 81.3714 121.897 81.9313 121.441 82.6475C120.986 83.3506 120.647 84.1709 120.426 85.1084C120.217 86.0329 120.113 87.0225 120.113 88.0771ZM140.016 96.9053C140.016 96.2933 140.204 95.779 140.582 95.3623C140.973 94.9326 141.533 94.7178 142.262 94.7178C142.991 94.7178 143.544 94.9326 143.922 95.3623C144.312 95.779 144.508 96.2933 144.508 96.9053C144.508 97.5042 144.312 98.012 143.922 98.4287C143.544 98.8454 142.991 99.0537 142.262 99.0537C141.533 99.0537 140.973 98.8454 140.582 98.4287C140.204 98.012 140.016 97.5042 140.016 96.9053Z" fill="white"/>
</svg>
